<?xml version="1.0" encoding="UTF-8" standalone="no"?>
<svg
   xmlns:dc="http://purl.org/dc/elements/1.1/"
   xmlns:cc="http://creativecommons.org/ns#"
   xmlns:rdf="http://www.w3.org/1999/02/22-rdf-syntax-ns#"
   xmlns:svg="http://www.w3.org/2000/svg"
   xmlns="http://www.w3.org/2000/svg"
   xmlns:sodipodi="http://sodipodi.sourceforge.net/DTD/sodipodi-0.dtd"
   xmlns:inkscape="http://www.inkscape.org/namespaces/inkscape"
   width="210mm"
   height="297mm"
   viewBox="0 0 210 297"
   version="1.1"
   id="svg8"
   inkscape:version="1.0.1 (1.0.1+r73)"
   sodipodi:docname="logo.svg">
  <defs
     id="defs2" />
  <sodipodi:namedview
     id="base"
     pagecolor="#ffffff"
     bordercolor="#666666"
     borderopacity="1.0"
     inkscape:pageopacity="0.0"
     inkscape:pageshadow="2"
     inkscape:zoom="1.4"
     inkscape:cx="307.97164"
     inkscape:cy="228.18212"
     inkscape:document-units="mm"
     inkscape:current-layer="layer1"
     inkscape:document-rotation="0"
     showgrid="false"
     inkscape:window-width="1920"
     inkscape:window-height="1030"
     inkscape:window-x="0"
     inkscape:window-y="0"
     inkscape:window-maximized="1" />
  <metadata
     id="metadata5">
    <rdf:RDF>
      <cc:Work
         rdf:about="">
        <dc:format>image/svg+xml</dc:format>
        <dc:type
           rdf:resource="http://purl.org/dc/dcmitype/StillImage" />
        <dc:title />
      </cc:Work>
    </rdf:RDF>
  </metadata>
  <g
     inkscape:label="Layer 1"
     inkscape:groupmode="layer"
     id="layer1">
    <rect
       style="fill:#666666;fill-opacity:1;fill-rule:evenodd;stroke:#000000;stroke-width:0.176177;stroke-linecap:round;stroke-linejoin:round;stroke-miterlimit:4;stroke-dasharray:none;stop-color:#000000"
       id="rect877"
       width="185.88744"
       height="40.35387"
       x="10.75868"
       y="34.471081"
       ry="0.75232977" />
    <g
       aria-label="PonyParker"
       id="text844"
       style="font-size:27.6442px;line-height:120%;font-family:Pacifico;-inkscape-font-specification:Pacifico;letter-spacing:0px;word-spacing:0px;writing-mode:lr-tb;fill:#fdce00;fill-opacity:1;stroke:#000000;stroke-width:0.602;stroke-linecap:butt;stroke-linejoin:miter;stroke-miterlimit:4;stroke-dasharray:none;stroke-opacity:1"
       transform="matrix(0.91454093,0,-0.07083939,0.91454093,6.6126078,-2.8963003)">
      <path
         d="m 78.543966,53.895571 q 0,2.349756 -1.216345,4.312495 -1.216345,1.962738 -3.538458,3.206727 -2.322112,1.243989 -5.52884,1.465142 l -1.1887,6.662252 q -0.691105,3.842544 -3.759611,3.842544 -1.686296,0 -3.123795,-0.995191 -1.409854,-0.995191 -2.266824,-3.040862 -0.85697,-2.045671 -0.85697,-5.031244 0,-5.611773 1.796873,-9.509605 1.824517,-3.925476 4.865379,-5.86057 3.068506,-1.962738 6.745184,-1.962738 2.598555,0 4.395428,0.912258 1.824517,0.912259 2.736776,2.487978 0.939903,1.548075 0.939903,3.510814 z m -9.786047,6.137012 q 5.667061,-0.718749 5.667061,-5.888215 0,-1.824517 -1.216345,-2.957929 -1.188701,-1.161056 -3.704323,-1.161056 -2.847352,0 -4.975956,1.796873 -2.100959,1.796873 -3.262015,5.0036 -1.133412,3.179083 -1.133412,7.270424 0,1.71394 0.33173,3.040862 0.359375,1.326922 0.884615,2.073315 0.552884,0.718749 1.050479,0.718749 0.691105,0 1.05048,-1.90745 l 0.912258,-5.224753 q -1.078124,-0.165865 -0.939903,-0.138221 -0.829325,-0.138221 -1.078123,-0.497596 -0.248798,-0.387019 -0.248798,-0.967547 0,-0.608172 0.33173,-0.967547 0.359375,-0.359374 0.967547,-0.359374 0.276442,0 0.414663,0.02764 0.663461,0.110577 1.022836,0.138221 0.359374,-2.156248 1.022835,-5.777638 0.165865,-0.939903 0.746393,-1.326921 0.608173,-0.414663 1.409855,-0.414663 0.912258,0 1.299277,0.359374 0.414663,0.331731 0.414663,1.078124 0,0.442307 -0.05529,0.718749 z"
         style="font-size:27.6442px;fill:#fdce00;fill-opacity:1;stroke-width:0.602;stroke-miterlimit:4;stroke-dasharray:none"
         id="path856" />
      <path
         d="m 92.059388,61.884744 q 0.359374,0 0.552884,0.359375 0.193509,0.359374 0.193509,0.912258 0,1.326922 -0.801682,1.57572 -1.658652,0.580528 -3.649034,0.66346 -0.52524,2.322113 -2.073315,3.731967 -1.548075,1.38221 -3.510813,1.38221 -1.658652,0 -2.847353,-0.801681 -1.161056,-0.801682 -1.769229,-2.128604 -0.608172,-1.326921 -0.608172,-2.874997 0,-2.100959 0.801682,-3.731966 0.801682,-1.658652 2.211536,-2.570911 1.409854,-0.939903 3.123794,-0.939903 2.100959,0 3.372593,1.465143 1.299277,1.437498 1.520431,3.566102 1.299277,-0.08293 3.09615,-0.552884 0.221154,-0.05529 0.387019,-0.05529 z m -9.067298,5.694705 q 0.884615,0 1.520431,-0.718749 0.663461,-0.718749 0.884615,-2.073315 -0.85697,-0.580528 -1.326922,-1.520431 -0.442307,-0.939903 -0.442307,-1.990382 0,-0.442307 0.08293,-0.884615 h -0.138221 q -1.105768,0 -1.852162,1.078124 -0.718749,1.05048 -0.718749,2.985574 0,1.520431 0.580528,2.322112 0.608173,0.801682 1.409854,0.801682 z"
         style="font-size:27.6442px;fill:#fdce00;fill-opacity:1;stroke-width:0.602;stroke-miterlimit:4;stroke-dasharray:none"
         id="path858" />
      <path
         d="m 92.395869,70.509734 q -1.05048,0 -1.492787,-1.105768 -0.414663,-1.105768 -0.414663,-3.538457 0,-3.593746 1.022835,-6.828117 0.248798,-0.801682 0.801682,-1.161057 0.580528,-0.387019 1.603363,-0.387019 0.552884,0 0.774038,0.138221 0.221154,0.138221 0.221154,0.52524 0,0.442307 -0.414663,1.990383 -0.276442,1.105768 -0.442308,1.935094 -0.165865,0.829326 -0.276442,2.04567 0.912259,-2.377401 2.045671,-3.870188 1.133412,-1.492786 2.211536,-2.128603 1.105768,-0.635817 2.018025,-0.635817 1.79687,0 1.79687,1.796873 0,1.078124 -0.60817,3.897833 -0.52524,2.405045 -0.52524,3.179082 0,1.105768 0.80168,1.105768 0.55289,0 1.29928,-0.66346 0.77404,-0.691105 2.04567,-2.211536 0.33173,-0.387019 0.7464,-0.387019 0.35937,0 0.55288,0.33173 0.22115,0.331731 0.22115,0.912259 0,1.105768 -0.52524,1.71394 -1.1887,1.465143 -2.57091,2.405046 -1.35456,0.939902 -3.09615,0.939902 -1.409851,0 -2.128601,-0.801681 -0.718749,-0.829326 -0.718749,-2.377402 0,-0.774037 0.387019,-2.76442 0.359375,-1.741584 0.359375,-2.405045 0,-0.442307 -0.304087,-0.442307 -0.359374,0 -1.022835,0.939903 -0.635817,0.912258 -1.326922,2.432689 -0.66346,1.520431 -1.078123,3.206727 -0.304087,1.299278 -0.71875,1.769229 -0.387018,0.442307 -1.243988,0.442307 z"
         style="font-size:27.6442px;fill:#fdce00;fill-opacity:1;stroke-width:0.602;stroke-miterlimit:4;stroke-dasharray:none"
         id="path860" />
      <path
         d="m 118.30108,64.262145 q 0.35937,0 0.55288,0.359375 0.22115,0.33173 0.22115,0.85697 0,0.635817 -0.19351,0.995191 -0.19351,0.359375 -0.60817,0.635817 l -5.30768,3.566102 q -1.05048,5.722349 -2.76442,8.984364 -1.6863,3.28966 -4.3125,3.28966 -1.40985,0 -2.29447,-0.884614 -0.88461,-0.85697 -0.88461,-2.266825 0,-1.299277 0.58053,-2.653843 0.60817,-1.354566 2.21153,-3.123794 1.63101,-1.741585 4.58894,-4.008409 l 0.0829,-0.635817 q 0.19351,-1.022835 0.44231,-2.930285 -0.55289,1.990382 -1.54808,3.040862 -0.99519,1.022835 -2.10096,1.022835 -1.24399,0 -2.04567,-1.133412 -0.77403,-1.161056 -0.77403,-2.874997 0,-2.073314 0.27644,-3.787255 0.27644,-1.741584 0.91226,-3.676678 0.27644,-0.829326 0.77403,-1.188701 0.4976,-0.359375 1.57572,-0.359375 0.60818,0 0.82933,0.19351 0.2488,0.193509 0.2488,0.580528 0,0.221154 -0.30409,1.492787 -0.27644,1.022835 -0.44231,1.852161 -0.22115,1.133412 -0.38702,2.183892 -0.16586,1.022835 -0.16586,1.686296 0,1.05048 0.58053,1.05048 0.41466,0 1.02283,-0.829326 0.63582,-0.829326 1.32692,-2.515622 0.71875,-1.686297 1.38221,-4.14663 0.22116,-0.829326 0.66347,-1.188701 0.46995,-0.359375 1.38221,-0.359375 0.63581,0 0.88461,0.165866 0.2488,0.165865 0.2488,0.552884 0,0.691105 -0.71875,4.754802 l -0.71875,4.450716 q 2.1286,-1.603364 4.14663,-2.930285 0.35937,-0.221154 0.63582,-0.221154 z m -12.10816,16.005992 q 0.6911,0 1.54807,-1.603364 0.85697,-1.603363 1.71394,-5.33533 -2.1286,1.796873 -3.09615,3.262015 -0.9399,1.492787 -0.9399,2.598555 0,0.469951 0.16586,0.774038 0.19351,0.304086 0.60818,0.304086 z"
         style="font-size:27.6442px;fill:#fdce00;fill-opacity:1;stroke-width:0.602;stroke-miterlimit:4;stroke-dasharray:none"
         id="path862" />
      <path
         d="m 138.79968,53.895571 q 0,2.349756 -1.21634,4.312495 -1.21635,1.962738 -3.53846,3.206727 -2.32212,1.243989 -5.52884,1.465142 l -1.1887,6.662252 q -0.69111,3.842544 -3.75961,3.842544 -1.6863,0 -3.1238,-0.995191 -1.40985,-0.995191 -2.26682,-3.040862 -0.85697,-2.045671 -0.85697,-5.031244 0,-5.611773 1.79687,-9.509605 1.82452,-3.925476 4.86538,-5.86057 3.06851,-1.962738 6.74518,-1.962738 2.59856,0 4.39543,0.912258 1.82452,0.912259 2.73678,2.487978 0.9399,1.548075 0.9399,3.510814 z m -9.78605,6.137012 q 5.66706,-0.718749 5.66706,-5.888215 0,-1.824517 -1.21634,-2.957929 -1.1887,-1.161056 -3.70432,-1.161056 -2.84736,0 -4.97596,1.796873 -2.10096,1.796873 -3.26201,5.0036 -1.13342,3.179083 -1.13342,7.270424 0,1.71394 0.33173,3.040862 0.35938,1.326922 0.88462,2.073315 0.55288,0.718749 1.05048,0.718749 0.6911,0 1.05048,-1.90745 l 0.91226,-5.224753 q -1.07813,-0.165865 -0.93991,-0.138221 -0.82932,-0.138221 -1.07812,-0.497596 -0.2488,-0.387019 -0.2488,-0.967547 0,-0.608172 0.33173,-0.967547 0.35938,-0.359374 0.96755,-0.359374 0.27644,0 0.41466,0.02764 0.66346,0.110577 1.02284,0.138221 0.35937,-2.156248 1.02283,-5.777638 0.16587,-0.939903 0.7464,-1.326921 0.60817,-0.414663 1.40985,-0.414663 0.91226,0 1.29928,0.359374 0.41466,0.331731 0.41466,1.078124 0,0.442307 -0.0553,0.718749 z"
         style="font-size:27.6442px;fill:#fdce00;fill-opacity:1;stroke-width:0.602;stroke-miterlimit:4;stroke-dasharray:none"
         id="path864" />
      <path
         d="m 140.64493,70.509734 q -1.71394,0 -2.73677,-1.243989 -1.02284,-1.243989 -1.02284,-3.262015 0,-2.211536 1.02284,-4.174274 1.02283,-1.990383 2.70913,-3.179083 1.71394,-1.216345 3.62139,-1.216345 0.60817,0 0.80168,0.248798 0.22115,0.221153 0.35937,0.829326 0.58053,-0.110577 1.21635,-0.110577 1.35457,0 1.35457,0.967547 0,0.580528 -0.41467,2.76442 -0.63581,3.179083 -0.63581,4.423072 0,0.414663 0.1935,0.663461 0.22116,0.248797 0.55289,0.248797 0.52524,0 1.27163,-0.66346 0.7464,-0.691105 2.01803,-2.211536 0.33173,-0.387019 0.74639,-0.387019 0.35938,0 0.55289,0.33173 0.22115,0.331731 0.22115,0.912259 0,1.105768 -0.52524,1.71394 -1.13341,1.409854 -2.40505,2.377401 -1.27163,0.967547 -2.46033,0.967547 -0.91226,0 -1.6863,-0.608172 -0.74639,-0.635817 -1.13341,-1.71394 -1.4375,2.322112 -3.62139,2.322112 z m 0.99519,-2.792064 q 0.60818,0 1.16106,-0.718749 0.55288,-0.718749 0.80168,-1.90745 l 1.02284,-5.086532 q -1.16106,0.02764 -2.15625,0.884614 -0.96755,0.829326 -1.54808,2.211536 -0.58052,1.38221 -0.58052,2.930285 0,0.85697 0.33173,1.271633 0.35937,0.414663 0.96754,0.414663 z"
         style="font-size:27.6442px;fill:#fdce00;fill-opacity:1;stroke-width:0.602;stroke-miterlimit:4;stroke-dasharray:none"
         id="path866" />
      <path
         d="m 152.21964,70.509734 q -1.05048,0 -1.49279,-1.105768 -0.41466,-1.105768 -0.41466,-3.538457 0,-3.593746 1.02284,-6.828117 0.24879,-0.801682 0.80168,-1.161057 0.58053,-0.387019 1.60336,-0.387019 0.55289,0 0.77404,0.138221 0.22115,0.138221 0.22115,0.52524 0,0.442307 -0.41466,1.990383 -0.27644,1.105768 -0.44231,1.935094 -0.16586,0.829326 -0.27644,2.04567 0.91226,-2.377401 2.04567,-3.870188 1.13341,-1.492786 2.21154,-2.128603 1.10577,-0.635817 2.01802,-0.635817 1.79688,0 1.79688,1.796873 0,0.359375 -0.2488,1.741585 -0.22115,1.105768 -0.22115,1.38221 0,0.967547 0.6911,0.967547 0.77404,0 1.99038,-1.216345 0.35938,-0.359374 0.7464,-0.359374 0.35937,0 0.55288,0.33173 0.22115,0.304086 0.22115,0.829326 0,1.022835 -0.55288,1.603363 -0.77404,0.801682 -1.82452,1.38221 -1.02283,0.552884 -2.18389,0.552884 -1.46514,0 -2.23918,-0.746393 -0.74639,-0.746393 -0.74639,-2.018026 0,-0.414663 0.0829,-0.829326 0.0553,-0.552884 0.0553,-0.746394 0,-0.442307 -0.30409,-0.442307 -0.41466,0 -1.10577,0.939903 -0.66346,0.912258 -1.32692,2.432689 -0.66346,1.520431 -1.07812,3.206727 -0.30409,1.299278 -0.71875,1.769229 -0.38702,0.442307 -1.24399,0.442307 z"
         style="font-size:27.6442px;fill:#fdce00;fill-opacity:1;stroke-width:0.602;stroke-miterlimit:4;stroke-dasharray:none"
         id="path868" />
      <path
         d="m 178.81553,64.206857 q 0.35937,0 0.55288,0.33173 0.22115,0.331731 0.22115,0.912259 0,1.105768 -0.52524,1.71394 -1.24398,1.520431 -2.51562,2.43269 -1.27163,0.912258 -3.01322,0.912258 -2.1286,0 -3.42788,-1.216344 -1.29927,-1.216345 -1.29927,-3.234372 0,-1.078124 1.10576,-1.548075 1.21635,-0.52524 1.74159,-1.105768 0.52524,-0.608172 0.52524,-1.465142 0,-0.497596 -0.22115,-0.746394 -0.19351,-0.248798 -0.4976,-0.248798 -0.74639,0 -1.65865,1.078124 -0.88462,1.078124 -1.65865,2.792064 -0.77404,1.686296 -1.21635,3.483169 -0.30409,1.299278 -0.71875,1.769229 -0.38702,0.442307 -1.24399,0.442307 -0.85697,0 -1.27163,-0.608172 -0.38702,-0.635817 -0.52524,-1.935094 -0.13822,-1.299277 -0.13822,-3.814899 0,-4.257207 0.85697,-8.873788 0.88461,-4.616582 2.57091,-7.740376 1.71394,-3.151439 4.09134,-3.151439 1.27163,0 2.04567,1.105768 0.80168,1.078124 0.80168,2.819708 0,2.792064 -1.631,5.805282 -1.63101,2.985574 -5.30769,6.993983 -0.0829,1.437498 -0.0829,2.957929 1.32692,-3.455525 3.04086,-5.0036 1.71394,-1.57572 3.20673,-1.57572 1.38221,0 2.21153,0.939903 0.85697,0.939903 0.85697,2.322113 0,1.520431 -0.77404,2.792064 -0.77403,1.271633 -2.65384,2.266824 0.11058,0.746394 0.66346,1.216345 0.58053,0.442307 1.38221,0.442307 0.85697,0 1.65865,-0.66346 0.80169,-0.663461 2.10096,-2.211536 0.33173,-0.387019 0.7464,-0.387019 z m -8.84615,-17.084115 q -0.49759,0 -1.10577,1.437498 -0.60817,1.409854 -1.1887,3.842544 -0.55288,2.405045 -0.91225,5.252398 1.71394,-2.018027 2.8197,-4.395428 1.13342,-2.377401 1.13342,-4.312495 0,-0.884615 -0.19351,-1.354566 -0.19351,-0.469951 -0.55289,-0.469951 z"
         style="font-size:27.6442px;fill:#fdce00;fill-opacity:1;stroke-width:0.602;stroke-miterlimit:4;stroke-dasharray:none"
         id="path870" />
      <path
         d="m 189.69049,64.206857 q 0.35938,0 0.55289,0.33173 0.22115,0.331731 0.22115,0.912259 0,1.105768 -0.52524,1.71394 -1.02283,1.243989 -2.90264,2.294469 -1.85216,1.050479 -3.98076,1.050479 -2.90264,0 -4.50601,-1.575719 -1.60336,-1.575719 -1.60336,-4.312495 0,-1.90745 0.80168,-3.538458 0.80168,-1.658652 2.21154,-2.626199 1.43749,-0.967547 3.23437,-0.967547 1.60336,0 2.57091,0.967547 0.96754,0.939903 0.96754,2.570911 0,1.90745 -1.38221,3.28966 -1.35456,1.354565 -4.61658,2.156247 0.69111,1.271633 2.6262,1.271633 1.24399,0 2.81971,-0.85697 1.60336,-0.884614 2.76442,-2.294468 0.33173,-0.387019 0.74639,-0.387019 z m -6.96633,-4.008409 q -1.02284,0 -1.74159,1.188701 -0.6911,1.1887 -0.6911,2.874996 v 0.05529 q 1.631,-0.387019 2.57091,-1.161057 0.9399,-0.774037 0.9399,-1.796873 0,-0.525239 -0.30409,-0.829326 -0.27644,-0.33173 -0.77403,-0.33173 z"
         style="font-size:27.6442px;fill:#fdce00;fill-opacity:1;stroke-width:0.602;stroke-miterlimit:4;stroke-dasharray:none"
         id="path872" />
      <path
         d="m 199.38195,61.276572 q 0.60817,0 1.02283,0.442307 0.44231,0.414663 0.44231,1.05048 0,0.359374 -0.16587,0.774037 -0.4423,1.022835 -1.24399,1.71394 -0.80168,0.691105 -1.76922,0.691105 -0.77404,0 -1.32693,-0.552884 -0.52524,-0.552884 -0.52524,-1.492786 0,-0.52524 0.0553,-1.133412 0.0553,-0.442308 0.0553,-0.608173 0,-0.221153 -0.11058,-0.33173 -0.0829,-0.110577 -0.22115,-0.110577 -0.38702,0 -1.05048,0.939903 -0.66346,0.912258 -1.32692,2.432689 -0.66346,1.520431 -1.07812,3.206727 -0.30409,1.326922 -0.69111,1.769229 -0.38702,0.442307 -1.27163,0.442307 -1.05048,0 -1.49279,-1.105768 -0.41466,-1.105768 -0.41466,-3.538457 0,-3.593746 1.02283,-6.828117 0.2488,-0.801682 0.80169,-1.161057 0.58052,-0.387019 1.60336,-0.387019 0.55288,0 0.77404,0.138221 0.22115,0.138221 0.22115,0.52524 0,0.442307 -0.41466,1.990383 -0.27644,1.105768 -0.44231,1.935094 -0.16587,0.829326 -0.27644,2.04567 0.91226,-2.377401 2.04567,-3.870188 1.13341,-1.492786 2.21153,-2.128603 1.07813,-0.635817 1.96274,-0.635817 0.80168,0 1.21635,0.469952 0.4423,0.442307 0.4423,1.326921 0,0.52524 -0.30408,1.990383 z"
         style="font-size:27.6442px;fill:#fdce00;fill-opacity:1;stroke-width:0.602;stroke-miterlimit:4;stroke-dasharray:none"
         id="path874" />
    </g>
    <g
       id="g854"
       transform="matrix(0.59961991,0,0,0.55483105,13.205035,8.1327838)"
       style="stroke-width:0.34327865;stroke-miterlimit:4;stroke-dasharray:none">
      <path
         style="fill:#fdce00;stroke-width:0.34327865;stroke-miterlimit:4;stroke-dasharray:none"
         d="m 41.186816,114.01861 -0.74236,-0.63882 0.0679,-1.60574 0.068,-1.60574 0.6314,-1.92263 0.6314,-1.92262 0.70283,-1.95083 0.70284,-1.95082 -0.094,-0.43043 -0.094,-0.43042 -0.69587,1.3467 -0.69587,1.3467 -0.85495,2.96712 -0.85496,2.96712 -0.55112,0.31278 -0.55112,0.31278 -3.175,0.004 -3.175,0.004 -1.25677,-0.4849 -1.25677,-0.48491 0.003,-0.70572 0.003,-0.70572 0.3628,-1.36255 0.36279,-1.36256 0.75855,-1.39778 0.75854,-1.39778 1.19063,-1.22166 1.19062,-1.22165 1.71979,-1.147718 1.71979,-1.14773 0.8599,-0.80917 0.8599,-0.80916 v -0.59066 -0.59066 l -0.41578,-0.41577 -0.41577,-0.41577 -0.44412,-0.004 -0.44413,-0.004 -1.97878,-1.07852 -1.97878,-1.07853 -1.0254,-0.92639 -1.0254,-0.92639 -0.96457,0.17877 -0.96457,0.17877 -0.84623,0.52009 -0.84624,0.52009 -0.16615,0.52351 -0.16616,0.52352 0.44153,1.76057 0.44154,1.76058 -0.1756,1.40544 -0.1756,1.40543 -0.80919,0.809198 -0.8092,0.8092 -1.84024,0.92673 -1.840236,0.92673 -0.969735,-0.0808 -0.969736,-0.0808 -0.727604,-1.4365 -0.727604,-1.436508 v -1.78519 -1.78519 l 0.529167,-2.68473 0.529166,-2.68473 9.79e-4,-0.70816 9.79e-4,-0.70816 0.506483,-0.83061 0.506482,-0.83062 1.080028,-0.36001 1.080049,-0.36001 0.06615,-0.26458 0.06615,-0.264577 -0.568254,-0.081 -0.568255,-0.081 -0.940276,0.392867 -0.940276,0.39288 -0.925318,1.83744 -0.925318,1.83743 -0.432062,0.1658 -0.432062,0.1658 h -1.53799 -1.537991 l -1.743325,-0.53846 -1.743325,-0.53846 -0.26892,-0.50248 -0.26892,-0.50248 0.0058,-0.61271 0.0058,-0.61271 0.510147,-1.12387 0.510147,-1.123857 1.26998,-1.25973 1.269979,-1.25973 2.248959,-1.12416 2.248958,-1.12415 1.167124,-0.65998 1.167123,-0.659985 0.457891,-1.022732 0.457891,-1.022731 0.616669,-0.431932 0.61667,-0.431932 h 0.226735 0.226734 l -0.165077,0.751591 -0.165077,0.751591 0.438415,0.363852 0.438416,0.363853 0.69783,-0.822778 0.69783,-0.822777 0.79036,-1.284853 0.79037,-1.284854 0.0916,-0.198438 0.0916,-0.198437 h -1.69572 -1.695728 l -0.575287,-0.612366 -0.575287,-0.612365 v -0.272669 -0.27267 l -0.496776,-0.449575 -0.496776,-0.449576 -0.01888,-2.171119 -0.01888,-2.171119 0.136336,-0.462155 0.136336,-0.462156 1.150619,-0.674308 1.150623,-0.674307 0.34381,-0.414266 0.34381,-0.414266 -0.0729,-1.785621 -0.0729,-1.785621 0.87602,-0.73864 0.87602,-0.73864 0.8599,-0.360332 0.85989,-0.360331 v -0.341422 -0.341421 l -0.87249,-0.845653 -0.87249,-0.845652 -0.51657,0.0028 -0.51657,0.0028 -1.32292,1.052709 -1.322921,1.052709 -0.554305,0.0028 -0.554305,0.0028 -0.459144,-0.507348 -0.459143,-0.507347 0.08741,-0.617132 0.08741,-0.617131 0.595313,-0.08455 0.595312,-0.08455 v 0.282986 0.282985 l -0.324448,-0.06615 -0.324447,-0.06615 -0.09083,0.595313 -0.09083,0.595312 h 0.418563 0.418564 l 0.890274,-1.389062 0.890274,-1.389063 0.756613,-0.754203 0.75662,-0.754202 1.02539,-0.523114 1.02539,-0.523114 1.7562,0.14302 1.75621,0.14302 2.30489,0.16884 2.30489,0.168841 0.30719,0.370143 0.3072,0.370144 h 0.37761 0.37762 l 0.76186,0.393974 0.76186,0.393973 0.16887,0.532068 0.16888,0.532069 h 0.53779 0.5378 l 0.89958,0.899583 0.89958,0.899583 v 0.423334 0.423333 h 0.25538 0.25538 l 0.95083,0.834845 0.95084,0.834845 0.52819,1.035334 0.52818,1.035333 0.14312,1.238676 0.14313,1.238675 -0.38196,1.097182 -0.38197,1.097182 0.28973,0.490318 0.28973,0.490318 -0.005,2.645834 -0.005,2.645833 -0.62406,1.190625 -0.62405,1.190625 -0.50952,0.723225 -0.50951,0.723226 -0.0264,1.261149 -0.0264,1.26115 0.19635,0.610699 0.19634,0.610695 0.69443,-0.0815 0.69443,-0.0815 0.18252,-0.661455 0.18253,-0.661462 0.0254,1.058337 0.0254,1.05833 -0.50516,0.82845 -0.50516,0.82844 1.23375,0.15271 1.23376,0.1527 0.7276,0.17418 0.7276,0.17417 v -0.40742 -0.40742 l -0.64964,-0.77205 -0.64963,-0.77205 0.38461,-0.54911 0.38461,-0.54912 1.19107,-0.454874 1.19107,-0.454874 V 78.41604 78.229872 l 0.6739,-0.307052 0.67391,-0.307054 1.11203,2.09e-4 1.11203,2.09e-4 1.6156,0.764312 1.6156,0.76431 0.91693,0.916939 0.91693,0.91693 0.57633,1.22608 0.57632,1.22608 v 1.41702 1.41703 l -0.54585,1.562417 -0.54584,1.56242 0.0109,0.39688 0.0109,0.39687 0.0218,1.7198 0.0217,1.71979 -0.51392,1.45521 -0.51393,1.4552 -0.98003,2.33645 -0.98003,2.336458 0.18105,0.17709 0.18106,0.17709 1.15554,-1.27236 1.15555,-1.272348 0.1708,-0.91046 0.1708,-0.91046 h 0.35813 0.35811 l 0.30394,0.56791 0.30394,0.56791 -0.12711,1.12772 -0.12712,1.127708 -0.55691,0.78212 -0.55692,0.78212 -1.39654,0.59817 -1.39653,0.59817 -0.19439,0.29753 -0.19438,0.29752 -0.004,1.11912 -0.004,1.11913 0.42657,1.0661 0.42657,1.0661 0.64242,0.16124 0.64243,0.16123 0.5185,-0.46924 0.51851,-0.46924 v -0.60545 -0.60544 l -0.54109,-0.379 -0.54109,-0.37899 0.43044,-0.16518 0.43044,-0.16517 h 1.30782 1.30783 l 0.25644,0.67448 0.25644,0.67449 -0.23021,1.02457 -0.2302,1.02456 -0.57953,0.81387 -0.57952,0.81387 -1.12295,0.77261 -1.12294,0.7726 -1.38581,0.45328 -1.38581,0.45327 -1.77315,-0.15576 -1.77315,-0.15576 -0.51265,-0.0773 -0.51266,-0.0773 -0.24497,0.83111 -0.24496,0.8311 -0.64389,0.29338 -0.6439,0.29337 h -3.80925 -3.80925 l -0.74236,-0.63882 z m 7.27642,0.0798 1.24164,-0.29445 0.40221,-0.45352 0.40222,-0.45351 -0.0305,-6.72651 -0.0305,-6.726508 -0.57016,-1.05441 -0.57015,-1.05442 v -0.57034 -0.57034 l 0.9214,-1.28566 0.9214,-1.28566 0.72317,-1.17898 0.72318,-1.17897 0.10372,-1.62885 0.10371,-1.62885 -0.53657,-1.21302 -0.53657,-1.213007 0.14205,-0.54323 0.14206,-0.54322 h -0.32375 -0.32375 l 0.15551,0.40526 0.15551,0.40525 -0.9871,-0.78256 -0.9871,-0.78256 -1.57653,-0.45126 -1.57652,-0.45126 h -2.04898 -2.04897 l -0.55423,-0.51634 -0.55422,-0.51634 -0.38434,0.31897 -0.38433,0.31897 v 0.2478 0.2478 l 0.26458,-0.16352 0.26458,-0.16352 v 0.68938 0.68938 l -0.78971,0.45071 -0.7897,0.45072 -0.25832,0.7375 -0.25831,0.7375 0.24772,0.651557 0.24773,0.65156 h -0.46121 -0.46119 l -0.95917,-0.65177 -0.95917,-0.651767 -0.57656,-1.191 -0.57655,-1.191 0.0694,-1.66296 0.0694,-1.66296 -0.8163,-0.0808 -0.81631,-0.0808 -0.447,-0.49393 -0.447,-0.49394 -0.14437,-1.076343 -0.14437,-1.076335 0.31843,-0.383681 0.31842,-0.38368 0.36083,0.138462 0.36082,0.138462 -0.13362,0.348215 -0.13362,0.348216 0.27354,0.16906 0.27355,0.169061 1.06005,-0.540797 1.06005,-0.540798 0.92326,-0.810627 0.92325,-0.810627 0.60329,-0.973686 0.6033,-0.973686 0.0627,-2.116667 0.0627,-2.116666 0.0511,-0.79375 0.0511,-0.79375 -0.19117,-0.999541 -0.19117,-0.99954 -0.25122,0.155259 -0.25121,0.15526 v 2.337765 2.337765 l -0.52853,1.711164 -0.52852,1.711164 -0.55317,0.703242 -0.55317,0.703242 -0.75725,0.391589 -0.75725,0.391589 h -1.88262 -1.88262 l -0.51427,-0.275231 -0.51427,-0.275231 -0.27608,0.738252 -0.27608,0.738252 -0.97431,1.852083 -0.9743,1.852084 -0.0271,2.31301 -0.0271,2.313 -0.44607,0.49291 -0.44607,0.4929 -1.11819,0.535347 -1.118193,0.53535 -1.140088,0.47628 -1.140087,0.47627 -0.476871,0.68039 -0.476871,0.68038 -0.477692,2.64583 -0.477691,2.64583 -0.110965,1.5075 -0.110964,1.5075 0.443396,1.53521 0.443397,1.535208 0.414162,0.46302 0.414163,0.46302 h 0.361678 0.361677 l 1.719484,-0.77965 1.719485,-0.77965 0.7516,-0.535188 0.7516,-0.53518 0.33297,-1.18926 0.33297,-1.18926 -0.31444,-1.79538 -0.31445,-1.79539 -0.14508,-0.79375 -0.14507,-0.79375 0.20254,0.19369 0.20254,0.19368 1.0032,-0.90634 1.00321,-0.90633 0.89488,-0.16788 0.89487,-0.16788 2.49435,1.61352 2.49435,1.61352 1.42968,0.53527 1.42969,0.53527 0.79493,-0.0776 0.79493,-0.0776 1.13954,1.65705 1.13954,1.65705 0.30436,1.12107 0.30436,1.12108 -0.1485,1.719798 -0.14849,1.71979 -0.97514,2.77812 -0.97513,2.77813 -0.13259,2.28701 -0.13259,2.28701 0.54846,0.29353 0.54846,0.29352 1.008,0.23716 1.00799,0.23715 1.2719,0.0266 1.2719,0.0266 z m -0.66384,-25.509258 -0.29822,-0.31925 -0.0531,-0.49841 -0.0531,-0.49841 0.0308,-0.52917 0.0308,-0.529167 0.59499,-0.66145 0.59499,-0.66146 h 0.39687 0.39688 l 0.37161,0.35272 0.37162,0.35271 0.023,1.255947 0.023,1.25595 -0.39461,0.37571 -0.3946,0.37571 -0.67134,0.0239 -0.67134,0.0239 -0.29822,-0.31924 z m 2.99374,-0.43844 0.13893,-0.2248 0.2463,0.15222 0.2463,0.15222 v 0.0726 0.0726 h -0.38523 -0.38524 z m -12.7684,21.569928 1.01986,-0.16849 0.47555,-0.78198 0.47556,-0.78199 0.18375,-1.22538 0.18376,-1.22539 0.72528,-1.59957 0.72528,-1.59956 0.81334,-0.92635 0.81334,-0.92634 -0.22171,-1.182298 -0.22171,-1.1823 -0.29069,-0.76216 -0.29069,-0.76216 -0.55104,-0.77386 -0.55104,-0.77387 -0.56685,0.0808 -0.56685,0.0808 0.0884,0.753 0.0884,0.753 -0.61758,0.66512 -0.61757,0.66513 -1.32292,0.85344 -1.32292,0.85345 -1.23067,1.198918 -1.23068,1.19893 -0.95255,1.43465 -0.95255,1.43465 -0.52875,1.50439 -0.52875,1.50439 v 0.52016 0.52016 l 0.30763,0.19013 0.30763,0.19013 0.81685,0.19528 0.81684,0.19528 1.85209,0.0242 1.85208,0.0242 1.01986,-0.16849 z m -19.246609,-19.342758 0.294085,-0.19439 0.752636,-1.54504 0.752636,-1.54505 0.673071,-0.535117 0.673071,-0.53512 2.22953,0.13557 2.22953,0.13558 0.71245,-0.71245 0.71245,-0.71245 -0.28225,-1.37786 -0.28225,-1.37785 h -0.24518 -0.24518 l -2.050975,-0.92604 -2.050976,-0.92604 h -0.654897 -0.654896 l -1.296178,0.70229 -1.296178,0.70229 -1.719792,0.84976 -1.719791,0.84975 -1.144656,1.24206 -1.144656,1.24205 -0.376698,0.901567 -0.376699,0.90157 v 0.60631 0.60631 l 0.555367,0.34683 0.555366,0.34683 1.892029,0.496 1.89203,0.49599 0.661458,0.0105 0.661459,0.0105 0.294084,-0.19438 z m 20.025839,-4.452007 0.15531,-0.81804 -0.92568,-0.44142 -0.92568,-0.44143 -0.36113,-0.86429 -0.36112,-0.8643 0.13584,-1.05124 0.13584,-1.05124 -0.3554,0.34526 -0.3554,0.34526 0.024,1.68745 0.0241,1.68745 0.45335,0.6919 0.45335,0.6919 0.83327,0.50674 0.83327,0.506737 0.0404,-0.0563 0.0404,-0.0564 0.15531,-0.818037 z m 1.54195,-2.14191 0.36313,-0.44642 -0.52917,0.21456 -0.52917,0.21457 -0.79375,0.20476 -0.79375,0.20477 0.9598,0.0271 0.95978,0.0271 z m -1.50881,-4.15544 0.8741,-1.351281 1.49975,-1.852083 1.49975,-1.852083 0.78511,-1.625327 0.7851,-1.625327 -0.005,-0.226756 -0.005,-0.226757 -0.80017,1.455208 -0.80017,1.455209 -0.83719,1.058333 -0.83719,1.058333 -1.33441,1.396344 -1.33441,1.396344 -0.59532,1.092673 -0.59531,1.09267 v 0.9638 0.9638 l 0.33073,0.33329 0.33073,0.33328 0.0822,-1.24419 0.0822,-1.2442 z m 0.35353,2.81591 -0.0352,-0.99219 0.4965,-1.03495 0.4965,-1.034965 1.95098,-2.086182 1.95098,-2.086188 0.7765,-1.641358 0.77649,-1.641358 2.1e-4,-2.182812 2.1e-4,-2.182813 -0.33073,2.59e-4 -0.33073,2.59e-4 -0.0224,1.388804 -0.0224,1.388803 -0.45702,1.322917 -0.45701,1.322917 -0.52127,0.889433 -0.52126,0.889434 -1.77743,2.23239 -1.77743,2.232395 -0.59532,1.107415 -0.59531,1.10742 v 0.99628 0.99628 h 0.51515 0.51515 l -0.0352,-0.99219 z m 2.1156,-1.36896 1.12636,-1.55198 0.41049,-0.982456 0.4105,-0.982448 -0.10775,-0.107754 -0.10776,-0.107752 -1.36454,1.343192 -1.36455,1.343198 -0.40892,0.79076 -0.40891,0.79075 0.16375,0.51595 0.16376,0.51594 0.1806,-0.008 0.18061,-0.008 1.12636,-1.55198 z m 2.84239,1.30282 0.52917,-0.2274 -0.53644,-0.0186 -0.53645,-0.0186 -0.58803,-0.41187 -0.58804,-0.41188 v -0.29059 -0.29059 l 0.48385,0.43789 0.48386,0.43788 h 0.94304 0.94305 l 0.1606,-0.41852 0.1606,-0.41851 v -0.23464 -0.23464 l -0.41034,0.15746 -0.41034,0.15746 -0.6284,-0.59036 -0.62841,-0.590365 -0.27186,0.168015 -0.27185,0.16802 -0.5376,0.755 -0.53761,0.75499 0.54449,0.69221 0.54449,0.69221 0.31153,-0.0186 0.31152,-0.0186 0.52917,-0.22739 z m -7.7875,-7.809719 0.83681,-0.789248 0.52123,-1.190625 0.52122,-1.190625 0.14804,-1.91823 0.14804,-1.918229 -0.36892,0.0058 -0.36892,0.0058 -1.12448,0.51042 -1.12448,0.510419 v 0.248122 0.248121 l -0.46302,-0.03675 -0.46302,-0.03675 -0.35592,-0.264584 -0.35592,-0.264583 -0.66773,-0.61475 -0.66773,-0.614751 0.14808,-0.912532 0.14808,-0.912533 -0.26745,0.165294 -0.26745,0.165295 -0.22927,0.568238 -0.22927,0.568239 -0.0168,-0.43504 -0.0168,-0.435039 0.76573,-0.755586 0.76573,-0.755585 0.82177,-0.615436 0.82177,-0.615437 v 0.416999 0.416999 h 0.21166 0.21167 l 0.3175,-0.3175 0.3175,-0.3175 v 0.449792 0.449791 h 0.547 0.54699 l -0.16922,0.533175 -0.16923,0.533175 0.56985,0.922034 0.56985,0.922033 h 0.21297 0.21298 l 0.1773,-0.859896 0.17731,-0.859896 0.14803,-1.022907 0.14803,-1.022908 0.53198,-0.531979 0.53197,-0.531979 -0.14001,-1.620113 -0.14002,-1.620114 -0.35675,-1.058333 -0.35676,-1.058333 -0.60634,-0.08602 -0.60635,-0.08602 -1.00623,1.012064 -1.00623,1.012064 -0.11113,0.343138 -0.11114,0.343137 -0.93463,-0.390514 -0.93463,-0.390514 -1.57478,0.658347 -1.57477,0.658347 -0.33073,0.144941 -0.33073,0.144941 -0.004,-0.62362 -0.004,-0.62362 -0.22464,-0.354416 -0.22464,-0.354417 -1.1052,0.563832 -1.10521,0.563832 -0.51819,0.518189 -0.51818,0.518189 -0.008,1.785937 -0.008,1.785938 -0.32232,0.406589 -0.32231,0.406589 -0.926045,0.632208 -0.926042,0.632208 -0.131188,0.106628 -0.131189,0.106627 -0.155111,1.764992 -0.155111,1.764992 -0.200882,0.452216 -0.200883,0.452217 0.884057,0.538982 0.884058,0.538982 1.665676,9.79e-4 1.66567,9.79e-4 0.67749,-0.677494 0.6775,-0.677494 0.11873,0.118731 0.11873,0.118731 -1.19536,0.979504 -1.19535,0.979504 -1.0301,0.138165 -1.03009,0.138164 -0.567175,-0.608796 -0.56718,-0.608776 v 0.405759 0.405758 l 0.558362,0.504027 0.558363,0.504029 1.75674,-0.02954 1.75674,-0.02954 0.13818,0.212225 0.13817,0.212224 1.44933,0.688632 1.44932,0.688631 1.90556,-0.08207 1.90555,-0.08207 z m -9.80324,-6.940811 0.004,-0.463021 0.23095,0.364627 0.23095,0.364626 0.33505,-0.207069 0.33504,-0.20707 -0.18878,0.305464 -0.18879,0.305464 h -0.38126 -0.38126 z m -2.649885,-0.803591 v -0.208279 l 0.534885,-0.04029 0.53489,-0.04029 -0.15363,0.24857 -0.153625,0.248571 h -0.38126 -0.38126 z m 14.193615,-5.089622 -0.46295,-0.783704 -0.51533,-0.275798 -0.51533,-0.275799 v -0.255274 -0.255274 l 0.52916,-0.529167 0.52917,-0.529167 h 0.29461 0.29462 l -0.13181,0.859896 -0.1318,0.859896 0.36983,0.90052 0.36983,0.90052 -0.0835,0.08353 -0.0835,0.08353 z m -3.21341,6.356234 -0.16352,-0.264583 0.34635,-0.008 0.34634,-0.008 -0.46302,-0.269685 -0.46302,-0.269684 v -0.49438 -0.49438 l 0.1606,-0.418515 0.1606,-0.418514 h 0.23627 0.23628 v 0.38126 0.38126 l 0.27617,0.170684 0.27618,0.170685 0.39409,-0.327073 0.3941,-0.327073 -0.55632,-0.592179 -0.55633,-0.59218 -0.47857,0.125149 -0.47857,0.125149 -0.29683,0.651483 -0.29684,0.651483 v 0.534112 0.534111 l 0.27389,0.511773 0.2739,0.511772 h 0.27089 0.27089 z m -1.04907,-1.256771 0.009,-1.256771 0.23404,-0.529166 0.23404,-0.529167 -0.57403,0.504028 -0.57403,0.504028 v 0.964409 0.96441 l 0.3175,0.3175 0.3175,0.3175 h 0.0132 0.0132 l 0.009,-1.256771 z m 3.8272,0.610927 v -0.116676 l -0.2463,-0.152223 -0.2463,-0.152222 -0.16619,0.268899 -0.16619,0.268899 h 0.41249 0.41249 z m 20.32331,45.973438 0.34726,-0.13896 0.15986,0.15985 0.15985,0.15985 -0.50712,-0.0209 -0.50712,-0.0209 0.34727,-0.13897 z m 1.05833,0 0.34727,-0.13896 0.15985,0.15985 0.15985,0.15985 -0.50712,-0.0209 -0.50712,-0.0209 0.34727,-0.13897 z"
         id="path917" />
      <g
         id="g847"
         style="stroke-width:0.34327865;stroke-miterlimit:4;stroke-dasharray:none">
        <path
           style="fill:#010201;fill-opacity:1;stroke:#000000;stroke-width:0.34327865;stroke-miterlimit:4;stroke-dasharray:none;stroke-opacity:1"
           d="m 41.274186,114.13426 c -0.36584,-0.28777 -0.72071,-0.81381 -0.7886,-1.16897 -0.23779,-1.24387 0.31746,-3.82143 1.51856,-7.04949 0.66635,-1.79088 1.17216,-3.50343 1.12401,-3.80567 -0.14552,-0.91355 -1.38646,1.78194 -2.33353,5.06877 -1.00705,3.49497 -1.06873,3.54293 -4.77737,3.71502 -2.736828,0.12699 -5.141497,-0.3487 -5.805177,-1.14839 -0.432489,-0.52111 0.03152,-3.09107 0.846539,-4.68864 1.352674,-2.65145 2.620833,-3.96854 6.046858,-6.280147 1.9974,-1.3477 2.6248,-2.01853 2.63703,-2.81963 0.0104,-0.68122 -0.64041,-1.40644 -1.26687,-1.41169 -0.68488,-0.006 -4.279859,-2.050716 -5.427081,-3.087156 -0.905594,-0.818152 -1.137034,-0.905452 -1.980827,-0.747152 -2.386073,0.447632 -3.230113,1.487282 -2.731096,3.364028 1.166546,4.38726 0.468665,6.011347 -3.352153,7.801037 -2.598476,1.21714 -3.398572,1.13634 -4.260263,-0.43019 -0.922298,-1.676707 -1.030917,-4.393037 -0.311859,-7.798887 0.304445,-1.442006 0.55372,-2.930288 0.553947,-3.307288 7.93e-4,-1.30586 0.836615,-2.49744 2.068044,-2.94825 0.628327,-0.23003 1.164109,-0.52937 1.190625,-0.66522 0.08197,-0.41993 -1.040759,-0.42885 -2.028574,-0.0161 -0.755725,0.31576 -1.121892,0.75352 -1.865594,2.23031 -0.508925,1.01059 -1.119746,1.912042 -1.35738,2.003232 -1.626954,0.62432 -6.718405,-0.394872 -7.287832,-1.458862 -0.330488,-0.61752 -0.130137,-2.08027 0.434484,-3.17213 0.719412,-1.39118 2.866836,-3.2741 4.744774,-4.16033 1.018646,-0.48071 2.398288,-1.22186 3.065872,-1.64701 0.667583,-0.42513 1.396841,-0.77297 1.620573,-0.77297 0.24223,0 0.472392,-0.32804 0.568969,-0.81092 0.162504,-0.81253 1.470952,-2.364075 1.99366,-2.364075 0.163859,0 0.217256,0.305329 0.129837,0.742425 -0.171061,0.8553 0.37594,1.47848 1.065491,1.21388 0.242924,-0.0932 0.688333,-0.66082 0.989798,-1.26133 0.301464,-0.600519 0.832174,-1.470859 1.179354,-1.934093 0.347181,-0.463233 0.631238,-0.909717 0.631238,-0.992187 0,-0.08247 -0.753153,-0.149945 -1.673672,-0.149945 -1.40737,0 -1.765205,-0.09744 -2.248958,-0.612366 -0.316408,-0.3368 -0.575287,-0.735066 -0.575287,-0.885034 0,-0.149968 -0.222459,-0.473992 -0.494353,-0.720053 -0.40349,-0.365153 -0.497122,-0.846845 -0.509419,-2.620694 -0.0083,-1.195322 0.04348,-2.381282 0.115033,-2.635467 0.07155,-0.254186 0.65997,-0.772681 1.30759,-1.152212 1.694216,-0.992876 1.9348,-1.443896 1.765594,-3.309932 -0.166692,-1.838313 0.186784,-2.385689 2.185063,-3.383678 0.652708,-0.325978 1.186742,-0.748801 1.186742,-0.939606 0,-0.543654 -1.62783,-1.997518 -2.233041,-1.994396 -0.299796,0.0015 -1.140397,0.476531 -1.868001,1.055521 -0.727604,0.57899 -1.572354,1.053975 -1.877222,1.055521 -1.316827,0.0067 -1.96717,-2.151077 -0.702465,-2.330694 0.327422,-0.0465 0.595312,0.0428 0.595312,0.198438 0,0.155642 -0.146001,0.253219 -0.324448,0.216839 -0.178446,-0.03638 -0.363884,0.190782 -0.412084,0.504804 -0.06974,0.454376 0.08284,0.608391 0.747297,0.754331 0.711082,0.15618 0.978258,0.05197 1.801147,-0.702507 0.531417,-0.487239 1.079323,-0.975516 1.217567,-1.08506 0.138406,-0.109672 0.04958,-0.199172 -0.197675,-0.199172 -0.246966,0 -0.910287,0.416719 -1.474047,0.926042 -0.563759,0.509323 -1.097261,0.926041 -1.18556,0.926041 -0.260576,0 1.359623,-2.439414 2.247709,-3.38421 1.43107,-1.522453 2.672161,-1.985168 4.831979,-1.801503 4.705967,0.400184 6.146372,0.586627 6.638742,0.859305 0.29104,0.161181 0.96547,0.479407 1.49874,0.707169 0.53327,0.227763 1.04278,0.629251 1.13225,0.892197 0.0895,0.262946 0.66481,0.716209 1.27853,1.007251 0.66104,0.313475 1.27799,0.852703 1.51359,1.322916 0.21875,0.436563 0.49856,0.837284 0.6218,0.890491 1.11105,0.479675 3.10169,3.10974 3.07286,4.059906 -0.006,0.187699 -0.1907,-0.0746 -0.41112,-0.582883 -0.95559,-2.20356 -3.191,-3.438533 -4.98084,-2.751706 -0.66099,0.253646 -0.48831,0.823191 0.30908,1.019443 2.27646,0.560269 4.08291,2.531076 4.45536,4.860715 0.13195,0.825343 0.2538,1.047421 0.4355,0.79375 0.17671,-0.246694 0.19574,-0.19368 0.0635,0.176951 -0.23337,0.654215 -0.22537,0.799779 0.11626,2.116667 0.63869,2.462014 0.16701,5.317309 -1.24654,7.545759 -0.41718,0.657668 -0.83028,1.638095 -0.91801,2.178731 -0.17765,1.09469 0.15402,2.56781 0.6467,2.8723 0.47069,0.2909 1.22144,-0.20182 1.35364,-0.8884 0.0659,-0.34235 0.12965,-0.14559 0.14978,0.46244 0.0208,0.62951 -0.16903,1.393 -0.4686,1.88429 l -0.50364,0.82595 1.23223,0.16787 c 0.67773,0.0923 1.55966,0.24055 1.95984,0.32937 0.94199,0.20909 0.97319,-0.36147 0.078,-1.42538 -0.58812,-0.69895 -0.61322,-0.82406 -0.26502,-1.32118 0.21154,-0.30201 0.92059,-0.7538 1.57568,-1.00398 0.65509,-0.25018 1.19107,-0.53865 1.19107,-0.64104 0,-0.1024 0.30325,-0.32434 0.6739,-0.49322 2.55097,-1.162297 7.0609,1.13667 8.58327,4.37538 0.69919,1.48745 0.69387,3.63146 -0.0135,5.43505 -0.41069,1.04717 -0.53955,1.94889 -0.5203,3.640862 0.0275,2.420416 -0.19559,3.270266 -1.96802,7.495816 -0.53902,1.285047 -0.89856,2.416147 -0.79898,2.513537 0.32986,0.32264 2.4852,-2.330567 2.66295,-3.278067 0.35303,-1.88183 1.6114,-0.46274 1.35188,1.52455 -0.18658,1.428707 -1.03642,2.439697 -2.62156,3.118647 -0.76809,0.329 -1.484,0.73206 -1.59092,0.89569 -0.30039,0.45976 -0.19986,2.5743 0.17138,3.60481 0.43398,1.20466 1.48523,1.63803 2.26396,0.93329 0.68956,-0.62405 0.68774,-1.59158 -0.004,-2.07603 -0.47395,-0.33197 -0.48768,-0.39949 -0.11065,-0.54417 0.23674,-0.0909 1.01985,-0.16518 1.74024,-0.16518 1.11386,0 1.34251,0.0884 1.52844,0.59104 0.351,0.94884 0.0485,2.37044 -0.74686,3.51001 -0.82232,1.17817 -3.03256,2.64259 -4.64401,3.07692 -1.02409,0.27603 -3.48887,0.18676 -4.96513,-0.17981 -0.62511,-0.15523 -0.72761,-0.10009 -0.72761,0.39136 0,0.31462 -0.29224,0.86428 -0.64943,1.22147 -0.63145,0.63145 -0.75869,0.64943 -4.59453,0.64943 -3.5295,0 -4.01516,-0.0551 -4.61025,-0.52321 z m 7.19577,-0.028 c 0.73499,-0.15763 1.48737,-0.5022 1.67194,-0.76571 0.2517,-0.35936 0.32798,-2.156 0.30516,-7.18788 -0.0287,-6.335647 -0.0621,-6.767397 -0.60059,-7.763177 -0.77701,-1.43695 -0.72187,-1.98341 0.35124,-3.48075 1.93768,-2.703706 2.35533,-3.578936 2.47101,-5.178198 0.19526,-2.69933 -1.11968,-5.11184 -3.29426,-6.04398 -1.36647,-0.58573 -4.46465,-1.04505 -5.84002,-0.86579 -0.78445,0.10223 -1.1384,0.005 -1.61285,-0.44233 -0.48783,-0.46009 -0.68375,-0.51032 -0.99219,-0.25433 -0.43076,0.3575 -0.53157,0.90557 -0.11975,0.65105 0.15053,-0.093 0.26458,0.13365 0.26458,0.52586 0,0.48813 -0.23053,0.82095 -0.78971,1.14009 -0.95094,0.54274 -1.40856,1.65685 -1.05861,2.57728 0.64705,1.70187 -2.28121,-0.008 -3.17474,-1.85367 -0.454773,-0.93944 -0.561991,-1.56225 -0.49131,-2.85395 l 0.09041,-1.65228 -0.874649,-0.084 c -1.108038,-0.10642 -1.949046,-1.33563 -1.843282,-2.69411 0.05694,-0.73132 0.197004,-0.94379 0.666102,-1.010423 0.432214,-0.0614 0.553415,0.02141 0.444983,0.303963 -0.504964,1.31592 2.242786,0.17677 3.893646,-1.614202 1.44565,-1.568342 1.87198,-2.673164 1.65697,-4.293974 -0.12271,-0.92506 -0.0483,-1.614057 0.25681,-2.3765 0.53411,-1.334873 0.54251,-1.970694 0.0328,-2.480447 -0.21828,-0.218281 -0.39687,-0.531469 -0.39687,-0.695972 0,-0.164503 -0.11907,-0.225513 -0.26459,-0.135576 -0.14552,0.08994 -0.26458,1.143511 -0.26458,2.341276 0,3.678958 -0.9452,6.376065 -2.63312,7.513554 -0.720382,0.485464 -1.249285,0.596212 -2.847362,0.596212 -1.079453,0 -2.178471,-0.115508 -2.442263,-0.256686 -0.418889,-0.224182 -0.641131,0.06897 -1.755124,2.315105 -1.220246,2.46038 -1.277102,2.67451 -1.312426,4.9429 -0.03689,2.3691 -0.03768,2.37168 -0.939461,3.06625 -0.496395,0.38233 -1.708263,1.02625 -2.693038,1.43092 -1.062757,0.43672 -1.989811,1.01861 -2.280875,1.43166 -0.529091,0.75084 -1.359649,4.707418 -1.546103,7.365278 -0.186212,2.65439 0.882456,5.634087 2.020465,5.633527 0.519787,-2.6e-4 3.522339,-1.40388 4.514766,-2.110547 0.46364,-0.33015 0.85261,-0.96132 1.069237,-1.73504 0.328254,-1.1724 0.209644,-2.63488 -0.460595,-5.679196 -0.0801,-0.3638 -0.05164,-0.5743 0.06323,-0.46777 0.114869,0.10652 0.660296,-0.21417 1.212059,-0.71266 0.551763,-0.498482 1.408734,-0.982412 1.904381,-1.075402 0.792284,-0.14863 1.193823,0.0231 3.323091,1.421262 2.690358,1.766576 5.006758,2.749706 6.201358,2.631986 0.68951,-0.0679 0.91467,0.10392 1.80474,1.37758 2.16626,3.09983 2.29995,5.261627 0.62996,10.186447 -1.26949,3.74376 -1.59396,7.30425 -0.70882,7.77797 1.44662,0.7742 4.19721,1.00429 6.38829,0.53439 z m 10e-4,-25.649575 c -0.19814,-0.12246 -0.47363,-0.15258 -0.6122,-0.0669 -0.14191,0.0877 -0.16474,0.0146 -0.0523,-0.16735 0.10981,-0.17769 0.26293,-0.25981 0.34025,-0.18249 0.0773,0.0773 0.37742,0.0138 0.66689,-0.14108 0.33473,-0.17914 0.46593,-0.18398 0.36044,-0.0133 -0.0912,0.14761 -0.0223,0.31623 0.15313,0.37471 0.21333,0.0711 0.18402,0.15813 -0.0885,0.2627 -0.22412,0.086 -0.5696,0.0562 -0.76774,-0.0663 z m 1.25251,-0.44038 c -0.0814,-0.13163 -0.0516,-0.39518 0.0661,-0.58567 0.11773,-0.19049 0.28061,-0.23865 0.36196,-0.10702 0.0814,0.13162 0.0516,0.39517 -0.0661,0.58566 -0.11773,0.19049 -0.28061,0.23865 -0.36196,0.10703 z m -1.46914,-2.11024 c 0.40119,-0.4834 0.88925,-0.44224 1.30731,0.11024 0.29807,0.39391 0.295,0.41366 -0.0205,0.1323 -0.41308,-0.36836 -1.16716,-0.45552 -0.95376,-0.11025 0.075,0.12127 -0.0352,0.22049 -0.24477,0.22049 -0.28753,0 -0.30919,-0.0866 -0.0883,-0.35278 z m -8.48243,-18.498759 c 0.0127,-0.308224 0.0754,-0.370919 0.15985,-0.159852 0.0764,0.190996 0.067,0.419199 -0.0209,0.507118 -0.0879,0.08792 -0.15045,-0.06835 -0.13896,-0.347266 z m 16.44943,44.958274 c -0.1819,-0.0734 -0.47956,-0.0734 -0.66146,0 -0.1819,0.0734 -0.0331,0.13345 0.33073,0.13345 0.3638,0 0.51263,-0.0601 0.33073,-0.13345 z m 2.48797,-0.91906 c 1.10402,-0.66793 2.68419,-2.43748 2.88262,-3.22806 0.0872,-0.34734 0.11996,-1.03494 0.0729,-1.52803 -0.079,-0.82683 -0.16275,-0.90288 -1.07783,-0.97862 -1.07589,-0.089 -1.18451,0.0702 -0.5869,0.86029 0.77196,1.02062 0.34428,3.09168 -0.8643,4.18542 -0.28225,0.25544 -0.97905,0.70589 -1.54844,1.001 -0.61832,0.32047 -0.76886,0.46734 -0.3738,0.36468 0.36381,-0.0945 1.03691,-0.39905 1.49579,-0.67668 z m -1.97395,0.18313 0.71246,-0.29831 -1.2481,-0.44329 c -1.77379,-0.62999 -3.31428,-2.05878 -4.25978,-3.9509 -0.84714,-1.69528 -1.1075,-1.55857 -0.40665,0.21353 0.66013,1.66914 1.19965,2.55364 2.19847,3.60419 0.51883,0.5457 0.80937,0.99218 0.64566,0.99218 -0.44305,0 -2.18298,-2.0956 -2.74596,-3.30729 l -0.49173,-1.05833 -0.002,1.45521 c -0.002,1.75132 0.11815,1.9675 1.4569,2.61868 1.15064,0.55968 3.03106,0.63885 4.14049,0.17433 z m 2.31104,-1.63807 c 0.74493,-0.94702 0.74243,-1.542 -0.005,-1.14209 -0.72442,0.38769 -1.90495,-0.0838 -2.50583,-1.00091 -0.24144,-0.36847 -0.54402,-1.50648 -0.6724,-2.52891 -0.12838,-1.02243 -0.29581,-1.92136 -0.37208,-1.99762 -0.36139,-0.36139 -0.72751,0.59093 -0.71456,1.85861 0.0166,1.62153 0.38452,2.74318 1.17763,3.58983 0.30671,0.32742 0.43629,0.59531 0.28796,0.59531 -0.90703,0 -2.00313,-2.76155 -1.90237,-4.79291 0.0555,-1.11889 -0.03,-1.30721 -1.02252,-2.25135 -1.91264,-1.81944 -1.81113,-4.263137 0.28987,-6.978637 2.41374,-3.119716 3.34249,-5.489978 3.34017,-8.524468 -0.002,-2.3617 -0.33756,-3.64438 -1.23224,-4.70766 -0.37632,-0.44723 -0.5992,-0.89741 -0.49529,-1.0004 0.33477,-0.33181 1.46326,1.35739 1.90304,2.84859 0.56086,1.90173 0.33908,5.83429 -0.43017,7.627682 l -0.53305,1.24272 0.66113,-0.79375 c 1.17247,-1.407662 1.81828,-3.473252 1.83381,-5.865402 0.0131,-2.02247 -0.0412,-2.23955 -0.84586,-3.38117 -0.99739,-1.41501 -1.09383,-1.75919 -0.29336,-1.04705 1.36863,1.21764 1.98498,4.54753 1.29016,6.97022 -0.38383,1.33835 0.13783,0.62361 0.63821,-0.87441 0.67518,-2.02133 0.8086,-4.11058 0.33492,-5.24426 -0.57709,-1.38116 -1.71023,-1.90884 -4.04282,-1.88265 -1.92174,0.0216 -3.13111,0.43307 -4.23598,1.44127 -1.04263,0.95141 -1.90531,-0.0238 -1.57563,-1.78123 0.19722,-1.05125 0.0631,-1.09282 -1.14652,-0.35538 l -0.89507,0.54568 0.84337,0.71011 c 0.46385,0.39055 0.8633,0.99257 0.88767,1.3378 0.0244,0.34524 0.30849,0.8008 0.63137,1.01236 0.53413,0.34998 0.6775,0.32321 1.59018,-0.29697 1.05486,-0.7168 1.8072,-0.84394 2.46777,-0.41705 0.33917,0.21919 0.32955,0.25707 -0.0662,0.26053 -0.6015,0.005 -0.5907,0.0872 0.23341,1.77165 0.60504,1.23664 0.67885,1.6568 0.56239,3.20137 -0.18572,2.46327 -0.9792,4.502602 -2.86414,7.361188 -1.48569,2.2531 -1.58388,2.49164 -1.25975,3.06035 0.23083,0.40502 0.35153,1.570607 0.35153,3.394907 0,2.55519 0.0655,2.91632 0.8162,4.50038 1.27105,2.68206 3.21564,4.23086 5.31203,4.23086 0.88337,0 1.22113,-0.14204 1.65777,-0.69714 z m -19.85842,-0.72741 c 0.3065,-0.27738 0.67018,-1.12831 0.84558,-1.97848 0.48145,-2.33366 1.25561,-4.15992 2.35061,-5.5452 0.96913,-1.22604 0.9992,-1.32493 0.79522,-2.615267 -0.22709,-1.43654 -1.01861,-3.2097 -1.67653,-3.75572 -0.65658,-0.54492 -1.36722,-0.25411 -1.27659,0.5224 0.10486,0.89847 -0.72856,1.90411 -2.53651,3.06064 -1.924226,1.230907 -3.9092,3.316117 -5.139755,5.399297 -1.108468,1.8765 -1.792039,4.32882 -1.334242,4.78662 0.518284,0.51828 2.02183,0.73109 4.743687,0.67142 2.18585,-0.0479 2.79163,-0.15032 3.22853,-0.54571 z m 12.42329,-13.458247 c 0.71117,-1.05503 1.54372,-2.41065 1.85011,-3.012486 0.79716,-1.56588 1.4615,-4.715212 1.2602,-5.974032 -0.22233,-1.39041 -1.12206,-3.11817 -1.62378,-3.11817 -0.31428,0 -0.34168,0.11049 -0.12692,0.51177 0.36404,0.68021 0.37276,2.43188 0.009,1.86948 -0.14106,-0.21828 -0.2583,-0.71727 -0.26053,-1.10886 -0.002,-0.3916 -0.12311,-0.78558 -0.26863,-0.87551 -0.46387,-0.28669 -0.28989,1.60625 0.25877,2.81537 0.64476,1.42094 0.70502,4.070692 0.12418,5.460832 -0.22593,0.540746 -0.86156,1.519186 -1.41251,2.174316 -1.27486,1.51594 -1.65512,2.23726 -1.45473,2.75948 0.0878,0.22882 0.20282,0.41604 0.25557,0.41604 0.0528,0 0.67779,-0.86321 1.38897,-1.91823 z M 19.693022,88.838075 c 1.255276,-2.5745 1.702426,-2.84505 4.428142,-2.67931 2.156665,0.13114 2.253065,0.11204 2.949674,-0.58457 0.659143,-0.65914 0.700986,-0.8194 0.493973,-1.89186 -0.124395,-0.64445 -0.231358,-1.26102 -0.237696,-1.37016 -0.0063,-0.10914 -0.145365,-0.19844 -0.308951,-0.19844 -0.163585,0 -1.220368,-0.41672 -2.348405,-0.92604 -1.128037,-0.50932 -2.353562,-0.92605 -2.723389,-0.92605 -1.159231,0 -6.622307,3.0536 -7.854344,4.3902 -1.18193,1.28225 -1.857684,2.60668 -1.857684,3.64095 0,0.75708 1.171931,1.40813 3.439584,1.9108 2.922008,0.647732 3.060399,0.600712 4.019096,-1.36552 z m 18.999654,-2.46937 c 0,-0.27914 0.0729,-0.6974 0.16192,-0.92947 0.11611,-0.3026 -0.0661,-0.50143 -0.644,-0.7029 -1.11852,-0.38992 -1.63459,-1.29852 -1.63459,-2.87787 0,-1.37599 -0.34656,-1.78332 -0.62698,-0.73692 -0.508218,1.8964 0.0503,3.89945 1.40506,5.03944 1.00533,0.84593 1.33859,0.89765 1.33859,0.20772 z m 13.22917,-1.66205 c 0,-0.42742 -0.0782,-0.50385 -0.29445,-0.28764 -0.16194,0.16194 -0.21445,0.42388 -0.11668,0.58208 0.27369,0.44283 0.41113,0.3444 0.41113,-0.29444 z m -11.60792,-0.92267 c 0.32319,-0.39731 0.30493,-0.42281 -0.16604,-0.23185 -0.29104,0.11801 -0.88636,0.30671 -1.32292,0.41933 l -0.79375,0.20477 0.95979,0.0271 c 0.60677,0.0171 1.09336,-0.13711 1.32292,-0.41933 z m -2.415,-1.49694 c 0,-1.278 0.92085,-2.8876 3.42924,-5.994149 1.38408,-1.714131 2.42589,-3.506811 2.7677,-4.7625 0.099,-0.363802 -0.2048,0.03092 -0.67517,0.877157 -1.01297,1.822388 -2.82017,3.951039 -3.17054,3.734498 -0.13622,-0.08419 -0.21496,-0.03536 -0.17497,0.108506 0.04,0.143868 -0.36438,0.789228 -0.8986,1.434128 -1.9189,2.3165 -2.47398,3.86585 -1.91081,5.33345 0.30478,0.79425 0.63315,0.4151 0.63315,-0.73109 z m 1.32292,0.0807 c 0,-1.50521 0.692,-2.68801 3.13358,-5.35604 2.78926,-3.047966 3.42439,-4.695862 3.25982,-8.457901 -0.0314,-0.716909 -0.16137,-0.992188 -0.46859,-0.992188 -0.28884,0 -0.37069,0.141994 -0.25525,0.442811 0.25119,0.654608 -0.11819,2.760405 -0.44841,2.556316 -0.16646,-0.102879 -0.19599,-0.04129 -0.0745,0.155325 0.45752,0.740292 -1.14644,3.768799 -3.44405,6.502837 -1.93918,2.30753 -2.76096,3.81923 -2.76096,5.07889 0,0.96244 0.082,1.13883 0.52917,1.13883 0.44184,0 0.52916,-0.17639 0.52916,-1.06888 z m 1.91302,-1.02099 c 1.26207,-1.6905 2.05856,-3.19416 2.0443,-3.85934 -0.009,-0.40827 -0.40704,-0.1126 -1.70094,1.2627 -1.58497,1.68469 -2.25538,2.98764 -1.8635,3.62172 0.28887,0.46739 0.52457,0.30845 1.52014,-1.02508 z m 2.97708,1.12901 c 0.32644,-0.12526 0.16625,-0.28763 -0.63982,-0.64852 -0.5914,-0.26478 -1.07528,-0.62475 -1.07528,-0.79995 0,-0.21511 0.15031,-0.18683 0.46302,0.0871 0.58163,0.50957 2.12086,0.73865 2.41134,0.35888 0.12017,-0.1571 0.29333,-0.49547 0.38481,-0.75193 0.13654,-0.38282 0.0554,-0.43847 -0.45322,-0.31081 -0.46334,0.11629 -0.75574,-0.0177 -1.15981,-0.53137 l -0.54027,-0.68685 -0.81752,0.99179 c -0.96522,1.171 -0.97585,1.24208 -0.28835,1.92957 0.55234,0.55234 0.98256,0.64317 1.7151,0.36206 z m 9.05613,-1.92046 c 0.79777,-0.39982 1.62383,-0.56062 2.91041,-0.56653 l 1.79648,-0.008 -1.05833,-0.6615 c -0.81863,-0.51168 -1.266,-0.62453 -1.97523,-0.49823 -1.20393,0.21439 -2.31578,0.80389 -3.08821,1.63735 -0.34381,0.37098 -0.6251,0.56142 -0.6251,0.42319 0,-0.49311 1.74799,-1.93433 2.78319,-2.29474 l 1.05327,-0.3667 -0.85395,-0.18947 c -1.03603,-0.22988 -1.85848,-0.006 -2.65476,0.72302 -0.69273,0.63413 -1.22686,2.34693 -0.97719,3.13356 0.16809,0.5296 0.18652,0.52715 0.87359,-0.11619 0.38604,-0.36147 1.20316,-0.90844 1.81583,-1.2155 z m -25.730144,0.037 c 0.09884,-0.40019 0.522714,-1.26485 0.941945,-1.92148 1.152693,-1.805425 1.679925,-3.171749 1.223906,-3.171749 -0.74505,0 -1.685133,1.071261 -2.384847,2.717619 -0.550944,1.29632 -0.920202,1.7926 -1.56872,2.10833 l -0.848165,0.41295 0.661458,0.2742 c 1.196611,0.49604 1.778787,0.37224 1.974423,-0.41987 z m -1.894385,-0.60148 c 0.374313,-0.29444 0.983581,-1.19721 1.353931,-2.00616 0.37035,-0.80894 1.060285,-1.832251 1.53319,-2.27401 0.657341,-0.614049 0.739279,-0.779983 0.347936,-0.704618 -0.281541,0.05422 -0.897834,0.633819 -1.369543,1.287998 -1.812846,2.5141 -2.526418,3.20474 -3.224747,3.12108 -0.365404,-0.0438 -0.719565,-0.24739 -0.787024,-0.45247 -0.08478,-0.25775 0.01294,-0.32086 0.316447,-0.2044 0.368672,0.14147 0.393718,0.0837 0.156159,-0.36018 -0.155618,-0.29077 -0.210877,-0.64528 -0.122799,-0.7878 0.08808,-0.1425 0.03824,-0.2591 -0.110747,-0.2591 -0.382882,0 -0.818674,0.9017 -0.818674,1.69394 0,0.45926 0.229151,0.79472 0.727604,1.06513 0.967509,0.52488 1.196578,0.51119 1.998267,-0.11941 z m 10.040275,0.0955 c -0.181901,-0.0734 -0.479557,-0.0734 -0.661459,0 -0.181901,0.0734 -0.03307,0.13345 0.33073,0.13345 0.363802,0 0.51263,-0.0601 0.330729,-0.13345 z m 0.997644,-5.81929 c 0.62848,-0.673765 1.17215,-1.619886 1.43025,-2.489016 0.51089,-1.720354 0.56172,-4.219016 0.0857,-4.210652 -0.55483,0.0097 -2.579689,1.010347 -2.579689,1.274772 0,0.357282 -0.887058,0.235561 -1.137626,-0.156104 -0.116372,-0.181901 -0.381518,-0.330729 -0.589213,-0.330729 -0.69392,0 -1.231703,-1.188342 -1.037797,-2.293224 0.169307,-0.964713 0.157181,-0.988313 -0.249139,-0.484901 -0.339594,0.420743 -0.394489,0.435393 -0.267913,0.0715 0.08756,-0.251716 0.593864,-0.723007 1.125128,-1.047312 0.531264,-0.324305 1.110976,-0.773199 1.28825,-0.997542 0.284879,-0.360521 0.323291,-0.352047 0.330729,0.07296 0.0063,0.359206 0.142282,0.438363 0.537581,0.312899 0.303559,-0.09635 0.529169,-0.04754 0.529169,0.114462 0,0.155328 0.24615,0.282413 0.54699,0.282413 0.42797,0 0.51018,0.116027 0.37778,0.533175 -0.16935,0.533579 0.74846,2.377242 1.18344,2.377242 0.21584,0 0.44683,-0.88529 0.71562,-2.742699 0.0814,-0.5626 0.38742,-1.262299 0.68001,-1.554887 0.45253,-0.452534 0.51217,-0.773925 0.39936,-2.152092 -0.0729,-0.891063 -0.28546,-2.126129 -0.47228,-2.744593 -0.27973,-0.926023 -0.45452,-1.124479 -0.99039,-1.124479 -0.65604,0 -2.4939,1.589387 -2.753526,2.38125 -0.108641,0.331363 -0.199706,0.339447 -0.55168,0.04897 -0.6679,-0.551202 -1.837468,-0.447697 -3.490007,0.30886 -0.841554,0.385276 -1.575242,0.700502 -1.630417,0.700502 -0.05518,0 -0.102142,-0.26789 -0.104371,-0.595312 -0.0084,-1.237441 -0.349694,-1.354578 -1.802149,-0.618563 -0.74239,0.376197 -1.473137,0.914453 -1.623882,1.196124 -0.150746,0.281672 -0.274084,1.281529 -0.274084,2.221907 0,1.601366 -0.05492,1.757649 -0.86615,2.46479 -0.476382,0.415257 -1.156134,0.944904 -1.51056,1.176992 -0.569979,0.37324 -0.64022,0.600928 -0.608136,1.97127 0.01995,0.85211 -0.07378,1.754922 -0.208283,2.00625 -0.603791,1.128194 0.567094,1.818209 3.085314,1.818209 1.481215,0 1.810988,-0.09162 2.380827,-0.661458 0.745079,-0.74508 1.159064,-0.89554 0.603656,-0.219395 -0.645864,0.786265 -2.695435,1.939186 -3.447328,1.939186 -0.411935,0 -0.967378,-0.253032 -1.271116,-0.579057 -0.434242,-0.466103 -0.539474,-0.495655 -0.539474,-0.151495 0,0.235159 0.327422,0.687363 0.727604,1.004898 0.631774,0.501297 0.945401,0.557408 2.38125,0.426034 0.909506,-0.08322 1.653646,-0.05383 1.653646,0.0653 0,0.119132 0.68461,0.535371 1.521354,0.924975 1.296698,0.603766 1.808303,0.696345 3.464543,0.626935 1.894198,-0.07938 1.968749,-0.108839 2.957059,-1.168362 z M 26.522143,67.693938 c 0,-0.218281 0.04679,-0.396875 0.103984,-0.396875 0.05719,0 0.172517,0.178594 0.256279,0.396875 0.08376,0.218281 0.03697,0.396875 -0.103984,0.396875 -0.140954,0 -0.256279,-0.178594 -0.256279,-0.396875 z M 24.042546,66.82282 c -0.07127,-0.115313 0.102873,-0.22717 0.386978,-0.24857 0.284105,-0.0214 0.447424,0.07295 0.36293,0.209659 -0.187473,0.303338 -0.574085,0.323399 -0.749908,0.03891 z m 14.02738,-5.088241 c -0.25462,-0.431037 -0.69485,-0.907813 -0.97828,-1.059502 -0.65301,-0.34948 -0.64983,-0.651853 0.0138,-1.315514 0.7815,-0.781502 1.15323,-0.672955 0.96244,0.281037 -0.0962,0.480737 -5.3e-4,1.196603 0.23498,1.760415 0.49799,1.191845 0.37665,1.365572 -0.23298,0.333564 z m 4.2105,9.936523 c 0.50352,-0.38084 0.50255,-0.388625 -0.0493,-0.396875 -0.78799,-0.01178 -1.16565,-0.567813 -1.38809,-2.043702 l -0.19171,-1.272004 -0.45,0.846757 c -1.15858,2.180116 0.30979,4.204086 2.07913,2.865824 z m 0.92107,-3.401389 c 1.51553,-1.073951 1.937,-2.027664 1.70309,-3.85382 l -0.19014,-1.484455 -0.35322,1.322917 c -0.43892,1.643832 -0.43288,1.80431 0.0299,0.79375 0.1999,-0.436563 0.36819,-0.615157 0.37399,-0.396875 0.0125,0.470305 -0.47293,1.241405 -2.16949,3.446227 -0.69122,0.898308 -1.25405,1.82985 -1.25074,2.070093 0.004,0.254235 0.17243,0.105045 0.40417,-0.356945 0.21898,-0.436563 0.8726,-1.129964 1.45249,-1.540892 z m -0.05,-1.298523 c 0.51211,-0.543031 0.86807,-1.050369 0.79102,-1.127417 -0.23003,-0.230032 -2.86824,2.706821 -2.86824,3.192925 0,0.324546 0.15828,0.237572 0.57306,-0.314891 0.31518,-0.419807 0.99205,-1.207585 1.50416,-1.750617 z m -8.294927,1.119623 c -0.08994,-0.145521 -0.03743,-0.264583 0.116676,-0.264583 0.154109,0 0.280199,-0.119063 0.280199,-0.264584 0,-0.145521 -0.178594,-0.264583 -0.396875,-0.264583 -0.241494,0 -0.396875,-0.246285 -0.396875,-0.629062 0,-0.345983 0.178593,-0.777281 0.396875,-0.958438 0.323995,-0.268893 0.396875,-0.253416 0.396875,0.08428 0,0.591129 0.48538,0.810603 0.946442,0.427953 0.34446,-0.285875 0.32403,-0.401663 -0.16222,-0.919252 -0.671541,-0.714821 -1.400335,-0.590181 -1.810304,0.309601 -0.504083,1.106343 -0.1927,2.743251 0.521839,2.743251 0.148989,0 0.197305,-0.119062 0.107368,-0.264583 z m -1.04968,-1.256771 c 0.0026,-0.691224 0.111199,-1.494896 0.241336,-1.785937 0.230529,-0.51556 0.222465,-0.51676 -0.313621,-0.04667 -0.778536,0.682687 -0.972255,1.691705 -0.471509,2.45594 0.228276,0.348393 0.442953,0.633442 0.477059,0.633442 0.03411,0 0.06414,-0.565547 0.06674,-1.256771 z m 3.827807,0.610927 c 0,-0.279261 -0.50777,-0.396586 -0.65879,-0.152222 -0.0914,0.147895 0.0194,0.268899 0.2463,0.268899 0.22687,0 0.41249,-0.0525 0.41249,-0.116677 z m 5.59877,-1.626151 c 1.29023,-1.781113 1.26954,-3.990958 -0.0451,-4.811938 -0.4891,-0.305447 -0.508,-0.262379 -0.35972,0.819465 0.1198,0.874046 -0.0303,1.683978 -0.64021,3.453289 -0.73752,2.139704 -0.75679,2.284919 -0.25926,1.954577 0.2956,-0.19627 0.88251,-0.833197 1.30425,-1.415393 z m -1.39577,-4.053658 c 0.24264,-0.153667 0.30801,-0.465319 0.19339,-0.92199 -0.12838,-0.51152 -0.34283,-0.689857 -0.82956,-0.689857 -0.5738,0 -0.65642,0.116549 -0.65642,0.926042 0,0.960875 0.46701,1.208652 1.29259,0.685805 z m -10.84352,-2.709662 c 0.656211,-1.882407 0.256399,-3.519549 -1.234191,-5.053748 -1.291869,-1.329663 -2.331353,-1.350231 -3.704749,-0.0733 l -0.988302,0.918882 0.926042,0.0081 c 1.822444,0.01604 3.374684,1.520428 4.033093,3.908774 0.170496,0.618464 0.392713,1.12448 0.493817,1.12448 0.101103,0 0.314534,-0.374955 0.47429,-0.833232 z m 1.252793,-1.197602 0.38434,-1.011875 -0.127532,0.992188 c -0.151763,1.180701 -0.03923,1.245068 0.462576,0.264583 0.953533,-1.863119 0.740988,-4.398965 -0.437913,-5.2247 -0.941856,-0.659702 -1.259035,-0.52037 -0.934524,0.410523 0.157153,0.45081 0.23361,1.90881 0.172895,3.297022 -0.05987,1.368842 -0.0628,2.442753 -0.0065,2.386469 0.05628,-0.05628 0.275288,-0.557679 0.486675,-1.11421 z m 3.639947,0.316548 c 0.57613,-0.879289 1.90939,-1.53588 2.84106,-1.39914 0.69625,0.102188 0.75875,0.0437 0.75875,-0.709985 0,-1.17476 -0.66001,-1.997423 -1.6025,-1.997423 -0.58548,0 -0.77875,0.12331 -0.77875,0.496855 0,0.811613 -0.73566,2.328987 -1.614344,3.329754 -0.559373,0.63709 -0.695978,0.935891 -0.427869,0.935891 0.216619,0 0.587262,-0.295178 0.823653,-0.655952 z M 34.054324,57.9705 c 0.230141,-0.327421 0.539137,-1.041796 0.68666,-1.5875 0.147522,-0.545703 0.390718,-0.992187 0.540436,-0.992187 0.30164,0 0.126794,0.756852 -0.453066,1.961179 -0.555927,1.154621 -0.236676,1.138185 0.534759,-0.02753 0.757263,-1.144305 1.588533,-3.657058 1.341863,-4.056178 -0.22606,-0.365776 -2.439202,-0.322608 -2.670781,0.05209 -0.105652,0.170948 -0.164395,0.989506 -0.130541,1.819019 0.03614,0.885561 -0.103887,1.904158 -0.339186,2.46731 -0.446234,1.067987 -0.156404,1.28323 0.489856,0.363793 z m 7.805242,-0.687341 c -0.005,-0.0949 -0.15346,-0.360874 -0.33073,-0.591041 -0.28129,-0.365212 -0.37508,-0.310175 -0.73678,0.432329 l -0.41446,0.850816 0.74519,-0.259774 c 0.40985,-0.142877 0.7414,-0.337425 0.73678,-0.43233 z m -1.04992,-0.963219 c 0,-0.184342 -0.1786,-0.483386 -0.39688,-0.664544 -0.33798,-0.280497 -0.39687,-0.209988 -0.39687,0.475131 0,0.442478 -0.0695,1.022604 -0.15444,1.289167 -0.12026,0.377412 -0.0324,0.34644 0.39687,-0.139963 0.30323,-0.343544 0.55132,-0.77545 0.55132,-0.959791 z m -9.519573,-2.761044 c -0.279616,-1.038415 -0.330619,-1.0785 -1.372243,-1.0785 h -1.081832 l 1.061976,1.152109 c 0.584087,0.633659 1.162088,1.437331 1.284447,1.785937 l 0.222469,0.633829 0.0878,-0.707438 C 31.54098,54.955742 31.4498,54.152071 31.290076,53.558896 Z M 57.957946,113.4184 c 0.191,-0.0764 0.4192,-0.067 0.50712,0.0209 0.0879,0.0879 -0.0683,0.15046 -0.34726,0.13897 -0.30823,-0.0127 -0.37092,-0.0754 -0.15986,-0.15985 z M 46.173376,63.328313 c 0,-0.654844 0.0516,-0.922734 0.11466,-0.595313 0.0631,0.327422 0.0631,0.863204 0,1.190625 -0.0631,0.327422 -0.11466,0.05953 -0.11466,-0.595312 z"
           id="path885" />
      </g>
    </g>
    <path
       style="fill:#ffffff;fill-opacity:1;fill-rule:evenodd;stroke:#000000;stroke-width:0.534533;stroke-linecap:round;stroke-linejoin:round;stroke-miterlimit:4;stroke-dasharray:none;stop-color:#000000"
       d="m 149.93763,269.49773 c -1.84632,-0.32493 -3.7346,-0.82419 -4.19617,-1.10945 -1.36857,-0.84583 -0.32343,-9.21166 2.12622,-17.01932 2.71244,-8.64521 2.78423,-11.87742 0.37136,-16.71942 -2.29633,-4.60812 -5.37826,-7.2947 -8.39213,-7.31556 -2.59898,-0.018 -6.76235,-1.78083 -12.64375,-5.3536 -4.99963,-3.03711 -7.69186,-3.15559 -11.89738,-0.52357 l -3.13859,1.96429 0.52783,4.64286 c 0.64233,5.64993 0.5331,8.12219 -0.43911,9.93877 -0.85861,1.60433 -9.63356,5.95347 -11.36287,5.63179 -0.64344,-0.11969 -1.751526,-1.34167 -2.46241,-2.71552 -1.634614,-3.15904 -1.353751,-12.46283 0.579377,-19.19228 l 1.307483,-4.55152 5.77426,-2.65676 c 3.17584,-1.46122 6.13202,-3.10946 6.56929,-3.66276 0.43727,-0.55331 0.99398,-3.25601 1.23712,-6.00601 0.3161,-3.57515 1.09189,-6.28211 2.72235,-9.4991 1.25416,-2.4745 2.47978,-4.6224 2.72362,-4.7731 0.24384,-0.15069 1.77786,-0.095 3.40895,0.12378 2.66962,0.35807 2.85589,0.5075 1.86622,1.49716 -2.29068,2.29068 0.64482,8.0084 4.11155,8.0084 1.14491,0 1.34944,0.5467 1.34944,3.6069 0,4.33171 1.3211,7.12219 4.53095,9.57047 3.35815,2.56138 4.75476,2.40167 4.75476,-0.54373 0,-1.69688 0.60625,-2.94719 2.14286,-4.41935 1.17857,-1.12914 2.14286,-2.63571 2.14286,-3.34792 0,-1.34153 1.05807,-1.75799 1.72496,-0.67895 0.20938,0.33879 3.36228,0.77705 7.00644,0.97392 7.91561,0.42761 11.09916,1.6325 13.85301,5.24299 1.74659,2.2899 2.05844,3.35646 2.05844,7.04007 0,3.89716 -0.2923,4.76581 -2.85714,8.49042 -4.82852,7.01191 -4.79562,6.89433 -3.19958,11.43535 1.20215,3.42035 1.41387,5.89714 1.41387,16.54056 0,11.56547 -0.10869,12.62653 -1.42857,13.94642 -0.78572,0.78571 -2.19197,1.42857 -3.125,1.42857 -0.93304,0 -2.62054,0.1341 -3.75,0.298 -1.12947,0.16389 -3.5642,0.0321 -5.41052,-0.2928 z m 13.25783,-53.46711 c 1.76688,-1.95238 0.68129,-6.80293 -1.59602,-7.13121 -2.47238,-0.35639 -4.37629,1.78842 -4.37629,4.93001 0,1.4812 0.40065,2.84859 0.89285,3.04719 1.88702,0.76143 3.93318,0.42064 5.07946,-0.84599 z m 3.3134,-0.10952 c 0,-0.39286 -0.32143,-0.71429 -0.71429,-0.71429 -0.39285,0 -0.71428,0.32143 -0.71428,0.71429 0,0.39286 0.32143,0.71428 0.71428,0.71428 0.39286,0 0.71429,-0.32142 0.71429,-0.71428 z"
       id="path879"
       transform="scale(0.26458333)" />
    <path
       style="fill:#ffffff;fill-opacity:1;fill-rule:evenodd;stroke:#000000;stroke-width:0.534533;stroke-linecap:round;stroke-linejoin:round;stroke-miterlimit:4;stroke-dasharray:none;stop-color:#000000"
       d="m 84.784099,219.07856 c -2.323618,-0.5692 -4.653975,-1.39113 -5.178571,-1.8265 -3.473225,-2.88252 1.925176,-9.15084 12.339067,-14.32742 l 7.338828,-3.64802 5.920717,2.14974 c 5.40522,1.96257 5.96026,2.34308 6.37488,4.37035 0.82167,4.01751 -0.71561,5.12439 -7.117,5.12439 -6.341271,0 -7.022254,0.3548 -10.282106,5.35714 -2.63954,4.05045 -3.385223,4.27269 -9.395815,2.80032 z"
       id="path881"
       transform="scale(0.26458333)" />
    <path
       style="fill:#ffffff;fill-opacity:1;fill-rule:evenodd;stroke:#000000;stroke-width:0.534533;stroke-linecap:round;stroke-linejoin:round;stroke-miterlimit:4;stroke-dasharray:none;stop-color:#000000"
       d="m 122.00116,259.70608 c -1.04311,-0.27019 -1.20108,-0.77252 -0.81627,-2.59572 1.24067,-5.87828 7.53324,-13.99257 13.93089,-17.96395 4.6253,-2.87117 6.39308,-4.68625 6.39308,-6.56411 0,-4.39285 4.47593,0.26583 5.37646,5.59597 0.40335,2.38741 0.1074,3.2649 -2.33433,6.92142 -1.53793,2.30307 -3.34787,6.1534 -4.02208,8.55628 -1.77453,6.32435 -2.15981,6.5658 -10.32107,6.46799 -3.8023,-0.0456 -7.4953,-0.23362 -8.20668,-0.41788 z"
       id="path883"
       transform="scale(0.26458333)" />
    <path
       style="fill:#ffffff;fill-opacity:1;fill-rule:evenodd;stroke:#000000;stroke-width:0.534533;stroke-linecap:round;stroke-linejoin:round;stroke-miterlimit:4;stroke-dasharray:none;stop-color:#000000"
       d="m 117.22315,186.30886 c -2.48925,-1.30921 -4.01989,-1.62485 -6.78572,-1.39932 -3.36523,0.27441 -3.43284,0.2478 -1.17104,-0.46092 3.01464,-0.94462 7.95676,-4.02852 7.95676,-4.96505 0,-1.07744 -1.85654,-0.83955 -2.85715,0.3661 -1.1187,1.34795 -9.22826,1.48189 -10.81173,0.17857 -0.88112,-0.72523 -0.96357,-1.59687 -0.43918,-4.64286 0.53038,-3.08077 0.90445,-3.75 2.0961,-3.75 1.02414,0 1.32412,-0.32937 1.02052,-1.12054 -0.27365,-0.71311 0.33528,-1.76448 1.67467,-2.89151 1.79806,-1.51297 2.13573,-2.35368 2.31786,-5.77101 0.22431,-4.20859 1.50506,-5.86944 5.39176,-6.99192 1.26577,-0.36555 1.60715,-0.17576 1.60715,0.89352 0,2.18098 0.58062,2.2615 5.15887,0.7154 3.16443,-1.06865 4.83578,-1.28896 6.18329,-0.81506 1.60092,0.56301 2.20483,0.29128 4.53797,-2.04186 4.2265,-4.22651 5.47814,-3.49604 6.55253,3.82414 0.37957,2.58621 0.18573,3.82378 -0.89505,5.71429 -0.75875,1.32722 -1.60471,3.69478 -1.8799,5.26125 -0.4677,2.66225 -0.56608,2.75823 -1.5076,1.47062 -0.55399,-0.75762 -1.00726,-2.11964 -1.00726,-3.02669 0,-0.98976 -0.42841,-1.6492 -1.07143,-1.6492 -0.58928,0 -1.07142,-0.35581 -1.07142,-0.7907 0,-0.43489 -0.44298,-0.62072 -0.98439,-0.41296 -0.54142,0.20776 -1.32419,0.0379 -1.73949,-0.37736 -0.53061,-0.53061 -1.62188,-0.0686 -3.67061,1.55402 -3.31073,2.62215 -4.70594,4.70405 -3.60745,5.38295 0.39392,0.24346 0.75425,0.0219 0.80073,-0.49236 0.0465,-0.51426 0.29034,0.0293 0.5419,1.20784 0.31659,1.4832 1.24369,2.56488 3.01163,3.51377 2.54088,1.36376 2.57095,1.36282 5.75504,-0.17857 3.91669,-1.89603 4.17835,-1.90581 4.17835,-0.15607 0,3.95397 -1.69259,8.78481 -3.89683,11.12199 -2.24259,2.37783 -2.5545,2.48321 -7.25894,2.45232 -3.74381,-0.0246 -5.68192,-0.43529 -8.12994,-1.72282 z m -4.68912,-13.17006 c 0.21736,-0.35169 -0.11139,-0.83383 -0.73055,-1.07143 -1.78322,-0.68428 -2.43748,-0.51265 -2.43748,0.63944 0,1.14998 2.51255,1.49259 3.16803,0.43199 z m 24.9998,-12.75342 c -0.30716,-1.08035 -0.61346,-2.91191 -0.68066,-4.07012 -0.14879,-2.56425 -1.38556,-3.10895 -3.24278,-1.42819 -1.83284,1.6587 -1.78167,1.92227 0.93418,4.81134 2.86402,3.04669 3.71581,3.24244 2.98926,0.68697 z"
       id="path886"
       transform="scale(0.26458333)" />
    <path
       style="fill:#ffffff;fill-opacity:1;fill-rule:evenodd;stroke:#000000;stroke-width:0.094493;stroke-linecap:round;stroke-linejoin:round;stroke-miterlimit:4;stroke-dasharray:none;stop-color:#000000"
       d="m 127.42948,192.90655 c 0.0465,-0.248 0.11478,-0.52958 0.15167,-0.62573 0.0369,-0.0962 -0.0682,-0.31008 -0.23348,-0.47539 -0.35506,-0.35507 -1.59867,-0.5716 -1.76641,-0.30756 -0.0724,0.11391 -0.0995,0.10478 -0.1023,-0.0344 -0.007,-0.32699 -0.19835,-0.516 -0.70711,-0.69731 -0.46547,-0.16587 -0.39905,-0.17585 1.21218,-0.18207 3.13825,-0.0121 4.78081,-0.33353 6.29732,-1.23229 3.98264,-2.36028 6.32916,-8.20912 6.3297,-15.77713 1e-4,-1.43355 0.19038,-4.0873 0.31844,-4.44109 0.0876,-0.24204 0.89457,0.99734 0.98687,1.5157 0.0492,0.27651 0.0113,0.50614 -0.11008,0.66684 -0.27597,0.36526 -0.23766,1.35876 0.0674,1.74652 0.35062,0.44574 0.31788,1.05717 -0.11496,2.14679 -0.58837,1.48114 -0.69568,2.27609 -0.57228,4.23977 0.19674,3.13098 0.0685,4.17626 -0.69888,5.69421 -1.23154,2.43625 -4.47179,5.51139 -7.42636,7.04793 -1.29552,0.67375 -2.70446,1.16616 -3.3367,1.16616 -0.36684,0 -0.37673,-0.0151 -0.29497,-0.4509 z"
       id="path888"
       transform="scale(0.26458333)" />
    <path
       style="fill:#ffffff;fill-opacity:1;fill-rule:evenodd;stroke:#000000;stroke-width:0.094493;stroke-linecap:round;stroke-linejoin:round;stroke-miterlimit:4;stroke-dasharray:none;stop-color:#000000"
       d="m 137.30951,205.26315 c -0.3331,-0.0842 -0.46634,-0.55839 -0.46634,-1.65959 0,-1.32252 0.24992,-2.22691 1.06932,-3.86952 0.84074,-1.6854 2.24561,-3.58322 4.84442,-6.54425 1.06494,-1.21337 2.41885,-2.82266 3.0087,-3.57618 2.50936,-3.20573 4.72686,-7.03164 5.14753,-8.88121 0.10854,-0.47722 0.33575,-1.25528 0.5049,-1.72902 0.58942,-1.65075 0.74214,-2.45106 0.7547,-3.95494 0.007,-0.79865 -0.0376,-1.63676 -0.0984,-1.86247 -0.091,-0.33818 -0.0749,-0.41037 0.0918,-0.41037 0.11125,0 0.30287,0.15353 0.42582,0.34117 0.1883,0.28738 0.23076,0.70497 0.26922,2.64785 0.10752,5.43055 -0.7684,8.33051 -3.66608,12.1375 -0.49138,0.64558 -1.95163,2.28347 -3.24499,3.63974 -6.35088,6.65981 -7.36737,8.25313 -7.57892,11.87962 -0.0499,0.85516 -0.1442,1.6048 -0.20959,1.66586 -0.16889,0.1577 -0.58454,0.24345 -0.85212,0.17581 z"
       id="path890"
       transform="scale(0.26458333)" />
    <path
       style="fill:#ffffff;fill-opacity:1;fill-rule:evenodd;stroke:#000000;stroke-width:0.094493;stroke-linecap:round;stroke-linejoin:round;stroke-miterlimit:4;stroke-dasharray:none;stop-color:#000000"
       d="m 140.05241,203.18589 c -0.55018,-1.06393 0.47994,-3.05135 3.03671,-5.85872 1.06179,-1.16586 3.93707,-3.84345 4.12721,-3.84345 0.38251,0 -0.80793,2.48432 -2.14797,4.48256 -1.62707,2.42626 -4.28369,5.61897 -4.67547,5.61897 -0.0737,0 -0.2269,-0.17971 -0.34048,-0.39936 z"
       id="path892"
       transform="scale(0.26458333)" />
    <path
       style="fill:#ffffff;fill-opacity:1;fill-rule:evenodd;stroke:#000000;stroke-width:0.094493;stroke-linecap:round;stroke-linejoin:round;stroke-miterlimit:4;stroke-dasharray:none;stop-color:#000000"
       d="m 149.40694,201.37649 c -0.92058,-0.20459 -1.28482,-0.36218 -2.30278,-0.99632 l -0.78705,-0.4903 0.7873,-0.881 c 0.43302,-0.48456 0.91316,-1.03101 1.06698,-1.21434 l 0.27967,-0.33333 0.84029,0.92059 c 1.1284,1.23624 1.59934,1.46854 2.79398,1.37819 0.50615,-0.0383 0.92028,-0.044 0.92028,-0.0126 0,0.0314 -0.17235,0.39843 -0.38301,0.81573 -0.25029,0.49583 -0.49378,0.80086 -0.7027,0.88029 -0.4384,0.16668 -1.60121,0.13572 -2.51296,-0.0669 z"
       id="path894"
       transform="scale(0.26458333)" />
    <path
       style="fill:#ffffff;fill-opacity:1;fill-rule:evenodd;stroke:#000000;stroke-width:0.094493;stroke-linecap:round;stroke-linejoin:round;stroke-miterlimit:4;stroke-dasharray:none;stop-color:#000000"
       d="m 147.24137,203.32563 c -0.28825,-0.14268 -0.84613,-0.59705 -1.23974,-1.00971 -0.58202,-0.61019 -0.69934,-0.80341 -0.62823,-1.03474 0.12718,-0.41372 0.1242,-0.41414 0.62522,0.0869 0.27455,0.27455 1.06501,0.75009 1.96246,1.18062 0.8265,0.39649 1.50415,0.75641 1.50587,0.79981 0.004,0.10648 -0.68062,0.23678 -1.24378,0.23666 -0.25175,-6e-5 -0.69356,-0.11684 -0.9818,-0.25952 z"
       id="path896"
       transform="scale(0.26458333)" />
    <path
       style="fill:#ffffff;fill-opacity:1;fill-rule:evenodd;stroke:#000000;stroke-width:0.0668167;stroke-linecap:round;stroke-linejoin:round;stroke-miterlimit:4;stroke-dasharray:none;stop-color:#000000"
       d="m 136.27488,212.13055 c -2.33073,-1.4035 -3.77785,-3.21401 -4.50878,-5.64098 -0.21618,-0.71783 -0.246,-0.98011 -0.27945,-2.45791 -0.0327,-1.44587 -0.0142,-1.75212 0.14688,-2.43039 0.10137,-0.42684 0.25038,-0.92792 0.33113,-1.11353 l 0.14682,-0.33746 0.0864,0.26786 c 0.0475,0.14732 0.10559,0.9308 0.12905,1.74107 0.10493,3.62386 1.22581,5.58457 3.72483,6.51568 0.95421,0.35553 1.4611,0.61476 1.52434,0.77955 0.0283,0.0737 -0.0295,0.3957 -0.12828,0.71563 -0.0988,0.31993 -0.20214,0.86824 -0.22961,1.21845 -0.0941,1.19971 -0.13276,1.23013 -0.94333,0.74203 z"
       id="path902"
       transform="scale(0.26458333)" />
    <path
       style="fill:#ffffff;fill-opacity:1;fill-rule:evenodd;stroke:#000000;stroke-width:0.0668167;stroke-linecap:round;stroke-linejoin:round;stroke-miterlimit:4;stroke-dasharray:none;stop-color:#000000"
       d="m 134.91153,204.99403 c -0.0711,-0.11049 -0.22142,-0.46205 -0.33398,-0.78125 -0.29873,-0.84713 -0.29939,-2.52772 -0.001,-3.48214 0.44042,-1.41048 1.47223,-3.21213 2.79031,-4.87222 1.78782,-2.25169 2.87019,-3.40992 6.16861,-6.601 1.21998,-1.18027 2.40247,-2.53981 3.40145,-3.91072 0.72406,-0.99363 0.58453,-0.60752 -0.20894,0.57821 -1.06499,1.59147 -2.07694,2.89424 -3.97566,5.11823 -3.52104,4.12422 -5.14176,6.32008 -6.32639,8.57143 -0.63931,1.21498 -0.93388,2.26604 -1.03712,3.70054 -0.0787,1.09295 -0.20778,1.87981 -0.30846,1.87981 -0.0215,0 -0.0973,-0.0904 -0.16846,-0.20089 z"
       id="path904"
       transform="scale(0.26458333)" />
    <path
       style="fill:#ffffff;fill-opacity:1;fill-rule:evenodd;stroke:#000000;stroke-width:0.0236233;stroke-linecap:round;stroke-linejoin:round;stroke-miterlimit:4;stroke-dasharray:none;stop-color:#000000"
       d="m 128.33417,173.62461 c -0.19535,-0.10326 -0.45887,-0.42087 -0.61431,-0.7404 -0.28407,-0.58394 -0.4126,-1.32387 -0.38399,-2.21053 0.0289,-0.89668 0.19113,-1.56158 0.55455,-2.27336 0.40509,-0.79338 0.97186,-1.26046 1.58011,-1.30215 0.43895,-0.0301 0.84555,0.0961 1.30091,0.40383 0.25006,0.16898 0.9282,0.82775 1.13535,1.10292 0.2297,0.30515 0.2097,0.38403 -0.17139,0.67587 -0.38171,0.29233 -0.71046,0.39628 -1.0086,0.31895 -0.34006,-0.0882 -0.48588,-0.35444 -0.52607,-0.96046 -0.0284,-0.42799 -0.0758,-0.57808 -0.22714,-0.71884 -0.18134,-0.16868 -0.48914,-0.18541 -0.77202,-0.042 -0.10444,0.053 -0.2365,0.0945 -0.30125,0.0947 -0.1009,3.5e-4 -0.11963,0.0129 -0.1501,0.10027 -0.0192,0.0549 -0.12457,0.18633 -0.23427,0.292 -0.81258,0.78272 -1.14517,2.22797 -0.71847,3.12204 0.11491,0.24077 0.30887,0.46835 0.48925,0.57406 0.0731,0.0429 0.24104,0.10493 0.37311,0.13794 0.22709,0.0567 0.68723,0.27431 0.68723,0.32493 0,0.0312 -0.2126,0.089 -0.33146,0.0901 -0.21695,0.002 -0.4715,0.18924 -0.56654,0.41674 -0.0755,0.18071 -0.0624,0.31086 0.0606,0.60079 0.0308,0.0725 -0.029,0.07 -0.17548,-0.007 z"
       id="path906"
       transform="scale(0.26458333)" />
    <path
       style="fill:#ffffff;fill-opacity:1;fill-rule:evenodd;stroke:#000000;stroke-width:0.0236233;stroke-linecap:round;stroke-linejoin:round;stroke-miterlimit:4;stroke-dasharray:none;stop-color:#000000"
       d="m 125.93292,172.4124 c -0.66577,-0.89338 -0.84743,-1.3521 -0.84743,-2.13979 0,-0.24909 0.0195,-0.5023 0.0501,-0.65097 0.10573,-0.5134 0.38615,-1.09375 0.74228,-1.53619 0.17672,-0.21956 0.65971,-0.71315 0.65971,-0.6742 0,0.0111 -0.0343,0.16695 -0.0762,0.34645 -0.20974,0.89832 -0.32945,2.05351 -0.33804,3.26212 -0.002,0.34724 -0.0133,0.84698 -0.024,1.11054 l -0.0195,0.4792 z"
       id="path908"
       transform="scale(0.26458333)" />
  </g>
</svg>
